<svg width="56" height="56" viewBox="0 0 56 56" fill="none" xmlns="http://www.w3.org/2000/svg">
<g clip-path="url(#clip0_316_1550)">
<path d="M12.6997 8.23845C12.5257 8.23845 12.3587 8.30759 12.2357 8.43066C12.1126 8.55373 12.0435 8.72065 12.0435 8.8947V10.2362C12.0435 10.4102 12.1126 10.5772 12.2357 10.7002C12.3587 10.8233 12.5257 10.8924 12.6997 10.8924C12.8738 10.8924 13.0407 10.8233 13.1637 10.7002C13.2868 10.5772 13.356 10.4102 13.356 10.2362V8.8947C13.356 8.72065 13.2868 8.55373 13.1637 8.43066C13.0407 8.30759 12.8738 8.23845 12.6997 8.23845ZM12.6997 11.8328C12.5257 11.8328 12.3587 11.902 12.2357 12.0251C12.1126 12.1481 12.0435 12.315 12.0435 12.4891V22.4328C12.0435 22.6069 12.1126 22.7738 12.2357 22.8968C12.3587 23.0199 12.5257 23.0891 12.6997 23.0891C12.8738 23.0891 13.0407 23.0199 13.1637 22.8968C13.2868 22.7738 13.356 22.6069 13.356 22.4328V12.4895C13.356 12.4033 13.3391 12.3179 13.3061 12.2383C13.2732 12.1586 13.2248 12.0862 13.1639 12.0252C13.103 11.9642 13.0306 11.9158 12.9509 11.8828C12.8713 11.8498 12.7859 11.8328 12.6997 11.8328Z" fill="#999999" stroke="#999999" stroke-width="0.5"/>
<path d="M55.1342 23.816V20.5168C55.1332 19.7087 54.8118 18.934 54.2404 18.3626C53.6691 17.7913 52.8944 17.4698 52.0863 17.4688H48.9754V3.58389C48.9739 2.77806 48.6527 2.00575 48.0825 1.43639C47.5122 0.867035 46.7394 0.547134 45.9336 0.546875H7.76355C6.95772 0.547134 6.1849 0.867035 5.61464 1.43639C5.04438 2.00575 4.72325 2.77806 4.72172 3.58389V31.4979H1.20312C1.02908 31.4979 0.862157 31.5671 0.739086 31.6901C0.616015 31.8132 0.546875 31.9801 0.546875 32.1542V35.2495C0.54841 36.0553 0.869545 36.8277 1.43982 37.3971C2.0101 37.9664 2.78295 38.2864 3.58881 38.2866H33.6413V52.4053C33.6423 53.2133 33.9638 53.988 34.5351 54.5593C35.1065 55.1307 35.8811 55.4521 36.6892 55.4531H52.0863C52.8944 55.4521 53.669 55.1307 54.2404 54.5593C54.8118 53.988 55.1332 53.2133 55.1342 52.4053V26.5344C55.2314 26.4763 55.3118 26.394 55.3677 26.2955C55.4236 26.1971 55.453 26.0858 55.4531 25.9726V24.3782C55.4531 24.2649 55.4237 24.1535 55.3678 24.055C55.3119 23.9565 55.2314 23.8741 55.1342 23.816ZM48.9134 18.7813V19.7195C48.9131 19.9683 48.8142 20.2067 48.6383 20.3826C48.4624 20.5584 48.224 20.6574 47.9753 20.6577H40.8003C40.5516 20.6574 40.3131 20.5584 40.1372 20.3826C39.9614 20.2067 39.8624 19.9683 39.8622 19.7195V18.7813H48.9134ZM33.6413 36.9739H3.58881C3.13093 36.974 2.69171 36.7925 2.36749 36.4692C2.04327 36.1459 1.86053 35.7071 1.85938 35.2493V32.8102H21.4211V33.5825C21.422 34.0724 21.6171 34.542 21.9637 34.8882C22.3104 35.2344 22.7802 35.4289 23.2701 35.4292H30.427C30.917 35.429 31.3869 35.2346 31.7336 34.8884C32.0803 34.5422 32.2756 34.0727 32.2766 33.5827V32.8104H33.6418L33.6413 36.9739ZM22.7336 33.5827V32.8104H30.9641V33.5827C30.9636 33.7247 30.9068 33.8606 30.8062 33.9608C30.7056 34.0609 30.5694 34.1171 30.4275 34.1169H23.2701C23.1281 34.1171 22.992 34.0609 22.8914 33.9607C22.7908 33.8606 22.7341 33.7246 22.7336 33.5827ZM33.6413 20.5168V24.498C33.5139 24.5435 33.4036 24.6272 33.3256 24.7378C33.2476 24.8483 33.2057 24.9803 33.2056 25.1156V26.7099C33.2057 26.8452 33.2477 26.9771 33.3257 27.0877C33.4037 27.1982 33.5139 27.2819 33.6413 27.3273V27.9265H15.7622C15.5882 27.9265 15.4213 27.9956 15.2982 28.1187C15.1751 28.2418 15.106 28.4087 15.106 28.5828C15.106 28.7568 15.1751 28.9237 15.2982 29.0468C15.4213 29.1699 15.5882 29.239 15.7622 29.239H33.2056V30.6961C33.2057 30.8314 33.2477 30.9633 33.3257 31.0738C33.4037 31.1843 33.5139 31.2681 33.6413 31.3135V31.4979H6.03422V3.58389C6.03538 3.12604 6.2181 2.68735 6.5423 2.36405C6.8665 2.04076 7.3057 1.85926 7.76355 1.85938H45.9336C46.3914 1.85926 46.8306 2.04076 47.1548 2.36405C47.479 2.68735 47.6617 3.12604 47.6629 3.58389V17.4688H45.397V4.77433C45.397 4.60028 45.3278 4.43336 45.2048 4.31029C45.0817 4.18722 44.9148 4.11808 44.7407 4.11808H8.95639C8.78234 4.11808 8.61542 4.18722 8.49235 4.31029C8.36928 4.43336 8.30014 4.60028 8.30014 4.77433V28.5829C8.30014 28.7569 8.36928 28.9238 8.49235 29.0469C8.61542 29.17 8.78234 29.2391 8.95639 29.2391H11.3872C11.5613 29.2391 11.7282 29.17 11.8513 29.0469C11.9744 28.9238 12.0435 28.7569 12.0435 28.5829C12.0435 28.4088 11.9744 28.2419 11.8513 28.1188C11.7282 27.9957 11.5613 27.9266 11.3872 27.9266H9.61264V5.43058H44.0845V17.4688H36.6892C35.8811 17.4698 35.1065 17.7913 34.5351 18.3626C33.9637 18.934 33.6423 19.7087 33.6413 20.5168ZM53.8217 52.4053C53.8212 52.8654 53.6382 53.3065 53.3129 53.6318C52.9875 53.9571 52.5464 54.1401 52.0863 54.1406H36.6892C36.2291 54.1401 35.788 53.9571 35.4627 53.6318C35.1373 53.3065 34.9543 52.8654 34.9538 52.4053V20.5168C34.9543 20.0567 35.1373 19.6156 35.4627 19.2902C35.788 18.9649 36.2291 18.7818 36.6892 18.7813H38.5497V19.7195C38.5503 20.3162 38.7877 20.8883 39.2096 21.3102C39.6315 21.7322 40.2036 21.9695 40.8003 21.9702H47.9753C48.572 21.9695 49.144 21.7322 49.566 21.3102C49.9879 20.8883 50.2252 20.3162 50.2259 19.7195V18.7813H52.0863C52.5464 18.7818 52.9875 18.9649 53.3129 19.2902C53.6382 19.6156 53.8212 20.0567 53.8217 20.5168V52.4053Z" fill="#999999" stroke="#999999" stroke-width="0.5"/>
</g>
<defs>
<clipPath id="clip0_316_1550">
<rect width="56" height="56" fill="white"/>
</clipPath>
</defs>
</svg>
