<svg width="56" height="56" viewBox="0 0 56 56" fill="none" xmlns="http://www.w3.org/2000/svg">
<g clip-path="url(#clip0_382_172)">
<path d="M55.3791 20.7534C55.7796 20.2146 55.9992 19.5602 55.9992 18.867C55.9992 17.1146 54.5735 15.6888 52.821 15.6888C52.1279 15.6888 51.4735 15.9084 50.9347 16.3089C50.3959 15.9084 49.7416 15.6888 49.0484 15.6888C48.6709 15.6888 48.3056 15.756 47.9634 15.8802C48.0899 15.5324 48.1546 15.1653 48.1547 14.7953C48.1547 14.1022 47.9351 13.4478 47.5346 12.9089C47.9351 12.3702 48.1547 11.7157 48.1547 11.0226C48.1547 9.27019 46.729 7.84438 44.9766 7.84438C44.2835 7.84438 43.629 8.064 43.0904 8.46442C42.5516 8.064 41.8972 7.84438 41.2041 7.84438C40.8265 7.84438 40.4612 7.91164 40.119 8.03578C40.2455 7.68802 40.3102 7.32083 40.3104 6.95078C40.3104 6.25756 40.0907 5.60328 39.6902 5.0645C40.0907 4.52572 40.3104 3.87133 40.3104 3.17811C40.3105 1.4257 38.8848 0 37.1323 0C36.4392 0 35.7848 0.219625 35.246 0.620047C34.7073 0.219625 34.0529 0 33.3597 0C32.6666 0 32.0122 0.219625 31.4734 0.620047C30.9347 0.219625 30.2804 0 29.5871 0C28.894 0 28.2396 0.219625 27.7009 0.620047C27.1622 0.219625 26.5077 0 25.8146 0C25.1215 0 24.4671 0.219625 23.9283 0.620047C23.3896 0.219625 22.7351 0 22.0419 0C21.3488 0 20.6944 0.219625 20.1556 0.620047C19.6169 0.219625 18.9626 0 18.2693 0C17.5762 0 16.9218 0.219625 16.3831 0.620047C15.8444 0.219625 15.19 0 14.4968 0C13.8038 0 13.1493 0.219625 12.6105 0.620047C12.0718 0.219625 11.4174 0 10.7242 0C10.0311 0 9.37671 0.219625 8.83804 0.620047C8.29926 0.219625 7.64487 0 6.95176 0C6.25865 0 5.60404 0.219625 5.06548 0.620047C4.5267 0.219625 3.8722 0 3.17909 0C1.42668 0 0.000976562 1.4257 0.000976562 3.17822C0.000976562 3.87144 0.220602 4.52583 0.621133 5.06461C0.220602 5.60339 0.000976562 6.25778 0.000976562 6.95089C0.000976562 7.64411 0.220602 8.29861 0.621133 8.83728C0.220602 9.37617 0.000976562 10.0306 0.000976562 10.7237C0.000976562 11.4169 0.220602 12.0713 0.621133 12.6101C0.220602 13.1488 0.000976562 13.8032 0.000976562 14.4965C0.000976562 15.1897 0.220602 15.8441 0.621133 16.3828C0.220602 16.9216 0.000976562 17.576 0.000976562 18.2692C0.000976562 18.9623 0.220602 19.6167 0.621133 20.1555C0.220602 20.6943 0.000976562 21.3487 0.000976562 22.0419C0.000976562 22.7351 0.220602 23.3895 0.621133 23.9283C0.220602 24.4671 0.000976562 25.1215 0.000976562 25.8147C0.000976562 26.5079 0.220602 27.1623 0.621133 27.7011C0.220602 28.2399 0.000976562 28.8943 0.000976562 29.5874C0.000976562 30.2806 0.220602 30.935 0.621133 31.4738C0.220602 32.0125 0.000976562 32.6669 0.000976562 33.3601C0.000976562 34.0534 0.220602 34.7077 0.621133 35.2465C0.220602 35.7853 0.000976562 36.4397 0.000976562 37.1329C0.000976562 38.8853 1.42668 40.3111 3.1792 40.3111C3.8722 40.3111 4.5267 40.0915 5.06548 39.691C5.60426 40.0915 6.25865 40.3111 6.95176 40.3111C7.32932 40.3111 7.69452 40.2439 8.03676 40.1197C7.9103 40.4675 7.84556 40.8346 7.84546 41.2046C7.84546 41.8977 8.06509 42.5522 8.46562 43.091C8.06509 43.6297 7.84546 44.2841 7.84546 44.9773C7.84546 46.7297 9.27116 48.1555 11.0236 48.1555C11.7168 48.1555 12.3712 47.9359 12.9099 47.5355C13.4486 47.9359 14.1031 48.1555 14.7961 48.1555C15.1738 48.1555 15.539 48.0882 15.8811 47.9641C15.7547 48.3119 15.6899 48.6791 15.6898 49.0491C15.6898 49.7422 15.9095 50.3966 16.31 50.9354C15.9095 51.4742 15.6898 52.1286 15.6898 52.8218C15.6898 54.5742 17.1155 56 18.8681 56C19.5613 56 20.2157 55.7804 20.7543 55.38C21.2931 55.7804 21.9475 56 22.6406 56C23.3338 56 23.9882 55.7804 24.5269 55.38C25.0657 55.7804 25.7201 56 26.4132 56C27.1064 56 27.7608 55.7804 28.2995 55.38C28.8382 55.7804 29.4926 56 30.1857 56C30.879 56 31.5334 55.7804 32.072 55.38C32.6108 55.7804 33.2652 56 33.9583 56C34.6514 56 35.3058 55.7804 35.8446 55.38C36.3833 55.7804 37.0378 56 37.7309 56C38.424 56 39.0784 55.7804 39.6172 55.38C40.1558 55.7804 40.8102 56 41.5033 56C42.1964 56 42.8509 55.7804 43.3896 55.38C43.9284 55.7804 44.5828 56 45.2759 56C45.969 56 46.6235 55.7804 47.1622 55.38C47.701 55.7804 48.3553 56 49.0484 56C49.7416 56 50.3961 55.7804 50.9347 55.38C51.4734 55.7804 52.1279 56 52.821 56C54.5734 56 55.9992 54.5743 55.9992 52.8218C55.9992 52.1286 55.7796 51.4742 55.3791 50.9354C55.7796 50.3966 55.9992 49.7422 55.9992 49.0491C55.9992 48.3559 55.7796 47.7014 55.3791 47.1627C55.7796 46.6238 55.9992 45.9694 55.9992 45.2763C55.9992 44.5831 55.7796 43.9287 55.3791 43.3899C55.7796 42.8512 55.9992 42.1968 55.9992 41.5035C55.9992 40.8104 55.7796 40.156 55.3791 39.6172C55.7796 39.0785 55.9992 38.424 55.9992 37.7308C55.9992 37.0377 55.7796 36.3833 55.3791 35.8445C55.7796 35.3057 55.9992 34.6513 55.9992 33.9581C55.9992 33.2649 55.7796 32.6105 55.3791 32.0717C55.7796 31.5329 55.9992 30.8785 55.9992 30.1853C55.9992 29.4921 55.7796 28.8377 55.3791 28.2989C55.7796 27.7601 55.9992 27.1057 55.9992 26.4126C55.9992 25.7194 55.7796 25.065 55.3791 24.5263C55.7796 23.9875 55.9992 23.3331 55.9992 22.6399C55.9992 21.9466 55.7796 21.2921 55.3791 20.7534ZM5.72195 38.0517C5.64556 37.9497 5.54645 37.8669 5.4325 37.8099C5.31855 37.7528 5.19288 37.7231 5.06545 37.7231C4.93802 37.7231 4.81235 37.7528 4.69838 37.8098C4.58442 37.8668 4.48531 37.9496 4.4089 38.0516C4.11424 38.445 3.66591 38.6705 3.17909 38.6705C2.33132 38.6705 1.64149 37.9807 1.64149 37.1329C1.64149 36.646 1.86713 36.1977 2.26045 35.9031C2.36245 35.8267 2.44525 35.7276 2.50228 35.6136C2.55932 35.4997 2.58901 35.374 2.58901 35.2465C2.58901 35.1191 2.55932 34.9934 2.50228 34.8794C2.44525 34.7655 2.36245 34.6664 2.26045 34.59C1.86702 34.2954 1.64149 33.8471 1.64149 33.3601C1.64149 32.8732 1.86713 32.4249 2.26045 32.1303C2.36245 32.0539 2.44525 31.9548 2.50228 31.8408C2.55932 31.7269 2.58901 31.6012 2.58901 31.4738C2.58901 31.3463 2.55932 31.2206 2.50228 31.1066C2.44525 30.9927 2.36245 30.8936 2.26045 30.8172C1.86702 30.5226 1.64149 30.0743 1.64149 29.5874C1.64149 29.1004 1.86713 28.6522 2.26045 28.3577C2.36245 28.2813 2.44525 28.1821 2.50228 28.0682C2.55932 27.9542 2.58901 27.8285 2.58901 27.7011C2.58901 27.5736 2.55932 27.4479 2.50228 27.334C2.44525 27.22 2.36245 27.1209 2.26045 27.0445C1.86702 26.75 1.64149 26.3016 1.64149 25.8147C1.64149 25.3278 1.86713 24.8794 2.26045 24.5849C2.36245 24.5085 2.44525 24.4094 2.50228 24.2954C2.55932 24.1814 2.58901 24.0557 2.58901 23.9283C2.58901 23.8009 2.55932 23.6752 2.50228 23.5612C2.44525 23.4472 2.36245 23.3481 2.26045 23.2717C1.86702 22.9772 1.64149 22.5288 1.64149 22.0419C1.64149 21.555 1.86713 21.1066 2.26045 20.8121C2.36245 20.7357 2.44525 20.6366 2.50228 20.5226C2.55932 20.4086 2.58901 20.283 2.58901 20.1555C2.58901 20.0281 2.55932 19.9024 2.50228 19.7884C2.44525 19.6744 2.36245 19.5753 2.26045 19.4989C1.86702 19.2044 1.64149 18.7562 1.64149 18.2692C1.64149 17.7823 1.86713 17.334 2.26045 17.0394C2.36245 16.963 2.44525 16.8639 2.50228 16.7499C2.55932 16.636 2.58901 16.5103 2.58901 16.3828C2.58901 16.2554 2.55932 16.1297 2.50228 16.0157C2.44525 15.9018 2.36245 15.8027 2.26045 15.7263C1.86702 15.4317 1.64149 14.9834 1.64149 14.4965C1.64149 14.0095 1.86713 13.5612 2.26045 13.2666C2.36245 13.1902 2.44525 13.0911 2.50228 12.9772C2.55932 12.8632 2.58901 12.7375 2.58901 12.6101C2.58901 12.4826 2.55932 12.3569 2.50228 12.243C2.44525 12.129 2.36245 12.0299 2.26045 11.9535C1.86702 11.6589 1.64149 11.2106 1.64149 10.7237C1.64149 10.2367 1.86713 9.78852 2.26045 9.49386C2.36247 9.41748 2.44529 9.31837 2.50234 9.2044C2.55938 9.09043 2.58908 8.96473 2.58908 8.83728C2.58908 8.70983 2.55938 8.58414 2.50234 8.47017C2.44529 8.3562 2.36247 8.25709 2.26045 8.1807C1.86702 7.88616 1.64149 7.43783 1.64149 6.95089C1.64149 6.46395 1.86713 6.01573 2.26045 5.72119C2.36245 5.64479 2.44525 5.54568 2.50228 5.43171C2.55932 5.31774 2.58901 5.19205 2.58901 5.06461C2.58901 4.93717 2.55932 4.81148 2.50228 4.69751C2.44525 4.58354 2.36245 4.48443 2.26045 4.40803C1.86702 4.11348 1.64149 3.66516 1.64149 3.17822C1.6416 2.33045 2.33132 1.64062 3.17909 1.64062C3.66591 1.64062 4.11424 1.86627 4.40879 2.25947C4.4852 2.36145 4.58432 2.44424 4.69828 2.50125C4.81225 2.55827 4.93793 2.58796 5.06537 2.58796C5.1928 2.58796 5.31848 2.55827 5.43245 2.50125C5.54642 2.44424 5.64553 2.36145 5.72195 2.25947C6.0166 1.86627 6.46471 1.64062 6.95176 1.64062C7.43859 1.64062 7.88691 1.86627 8.18146 2.25947C8.25787 2.36145 8.35699 2.44424 8.47096 2.50125C8.58492 2.55827 8.71061 2.58796 8.83804 2.58796C8.96547 2.58796 9.09116 2.55827 9.20512 2.50125C9.31909 2.44424 9.41821 2.36145 9.49462 2.25947C9.78916 1.86627 10.2374 1.64062 10.7242 1.64062C11.2111 1.64062 11.6594 1.86627 11.9539 2.25947C12.0303 2.36149 12.1294 2.44431 12.2434 2.50136C12.3573 2.5584 12.483 2.5881 12.6105 2.5881C12.7379 2.5881 12.8636 2.5584 12.9776 2.50136C13.0916 2.44431 13.1907 2.36149 13.2671 2.25947C13.5616 1.86627 14.0099 1.64062 14.4968 1.64062C14.9837 1.64062 15.4319 1.86627 15.7265 2.25947C15.8029 2.36147 15.902 2.44427 16.016 2.50131C16.1299 2.55834 16.2556 2.58803 16.3831 2.58803C16.5105 2.58803 16.6362 2.55834 16.7502 2.50131C16.8641 2.44427 16.9632 2.36147 17.0396 2.25947C17.3342 1.86616 17.7824 1.64062 18.2693 1.64062C18.7563 1.64062 19.2045 1.86627 19.499 2.25947C19.5754 2.36147 19.6746 2.44427 19.7885 2.50131C19.9025 2.55834 20.0282 2.58803 20.1556 2.58803C20.2831 2.58803 20.4088 2.55834 20.5227 2.50131C20.6367 2.44427 20.7358 2.36147 20.8122 2.25947C21.1067 1.86616 21.555 1.64062 22.0419 1.64062C22.5288 1.64062 22.9771 1.86627 23.2716 2.25947C23.348 2.36147 23.4471 2.44427 23.5611 2.50131C23.6751 2.55834 23.8007 2.58803 23.9282 2.58803C24.0556 2.58803 24.1813 2.55834 24.2953 2.50131C24.4093 2.44427 24.5084 2.36147 24.5848 2.25947C24.8793 1.86616 25.3275 1.64062 25.8145 1.64062C26.3014 1.64062 26.7496 1.86627 27.0442 2.25947C27.1206 2.36147 27.2197 2.44427 27.3336 2.50131C27.4476 2.55834 27.5733 2.58803 27.7007 2.58803C27.8282 2.58803 27.9539 2.55834 28.0678 2.50131C28.1818 2.44427 28.2809 2.36147 28.3573 2.25947C28.652 1.86627 29.1002 1.64062 29.5871 1.64062C30.0741 1.64062 30.5223 1.86627 30.8168 2.25947C30.8932 2.36147 30.9923 2.44427 31.1063 2.50131C31.2203 2.55834 31.346 2.58803 31.4734 2.58803C31.6009 2.58803 31.7265 2.55834 31.8405 2.50131C31.9545 2.44427 32.0536 2.36147 32.13 2.25947C32.4245 1.86627 32.8728 1.64062 33.3597 1.64062C33.8466 1.64062 34.2949 1.86627 34.5894 2.25947C34.6658 2.36147 34.7649 2.44427 34.8789 2.50131C34.9928 2.55834 35.1185 2.58803 35.246 2.58803C35.3734 2.58803 35.4991 2.55834 35.6131 2.50131C35.727 2.44427 35.8262 2.36147 35.9026 2.25947C36.1971 1.86616 36.6453 1.64062 37.1323 1.64062C37.98 1.64062 38.6699 2.33045 38.6699 3.17822C38.6699 3.66516 38.4442 4.11348 38.0509 4.40792C37.9488 4.4843 37.866 4.58342 37.8089 4.69741C37.7518 4.8114 37.7221 4.93713 37.7221 5.06461C37.7221 5.19209 37.7518 5.31782 37.8089 5.43181C37.866 5.5458 37.9488 5.64492 38.0509 5.7213C38.4443 6.01573 38.6699 6.46395 38.6699 6.95089C38.6699 7.32987 38.5317 7.68436 38.2857 7.96228C38.0077 7.88455 37.7203 7.84493 37.4316 7.84448C36.7385 7.84448 36.084 8.06411 35.5453 8.46453C35.0066 8.06411 34.3522 7.84448 33.6591 7.84448C32.966 7.84448 32.3116 8.06411 31.7728 8.46453C31.2341 8.06411 30.5797 7.84448 29.8865 7.84448C29.1934 7.84448 28.539 8.06411 28.0002 8.46453C27.4615 8.06411 26.8072 7.84448 26.1139 7.84448C25.4208 7.84448 24.7664 8.06411 24.2277 8.46453C23.689 8.06411 23.0346 7.84448 22.3414 7.84448C21.6483 7.84448 20.9939 8.06411 20.4551 8.46453C19.9164 8.06411 19.262 7.84448 18.5688 7.84448C17.8757 7.84448 17.2213 8.06411 16.6825 8.46453C16.1439 8.06411 15.4895 7.84448 14.7962 7.84448C14.1032 7.84448 13.4487 8.06411 12.91 8.46453C12.3713 8.06411 11.7169 7.84448 11.0237 7.84448C9.27138 7.84448 7.84557 9.27019 7.84557 11.0227C7.84557 11.7159 8.0652 12.3703 8.46573 12.909C8.0652 13.4478 7.84557 14.1023 7.84557 14.7954C7.84557 15.4886 8.0652 16.1431 8.46573 16.6818C8.0652 17.2204 7.84557 17.8749 7.84557 18.5682C7.84557 19.2613 8.0652 19.9158 8.46573 20.4545C8.0652 20.9932 7.84557 21.6477 7.84557 22.3409C7.84557 23.0342 8.0652 23.6885 8.46573 24.2272C8.0652 24.766 7.84557 25.4205 7.84557 26.1136C7.84557 26.8068 8.0652 27.4613 8.46573 28C8.0652 28.5387 7.84557 29.1932 7.84557 29.8864C7.84557 30.5796 8.0652 31.2341 8.46573 31.7728C8.0652 32.3115 7.84557 32.966 7.84557 33.6591C7.84557 34.3523 8.0652 35.0068 8.46573 35.5455C8.0652 36.0842 7.84557 36.7387 7.84557 37.4318C7.84557 37.7258 7.88735 38.0121 7.96337 38.2863C7.68488 38.5343 7.32481 38.6712 6.95187 38.6706C6.46471 38.6706 6.0166 38.445 5.72195 38.0517ZM13.5663 45.896C13.4899 45.7941 13.3908 45.7113 13.2768 45.6543C13.1629 45.5972 13.0372 45.5676 12.9097 45.5676C12.7823 45.5676 12.6566 45.5972 12.5427 45.6543C12.4287 45.7113 12.3296 45.7941 12.2532 45.896C11.9586 46.2894 11.5104 46.5149 11.0235 46.5149C10.1757 46.5149 9.48598 45.8251 9.48598 44.9773C9.48598 44.4904 9.71162 44.0421 10.1048 43.7477C10.2069 43.6713 10.2897 43.5722 10.3468 43.4582C10.4039 43.3443 10.4336 43.2186 10.4336 43.0911C10.4336 42.9636 10.4039 42.8379 10.3468 42.7239C10.2898 42.61 10.207 42.5108 10.1049 42.4344C9.71151 42.1399 9.48598 41.6916 9.48598 41.2046C9.48598 40.7176 9.71162 40.2694 10.1048 39.9749C10.2069 39.8985 10.2897 39.7994 10.3468 39.6854C10.4039 39.5714 10.4336 39.4457 10.4336 39.3182C10.4336 39.1908 10.4039 39.065 10.3468 38.951C10.2897 38.837 10.2069 38.7379 10.1048 38.6615C9.71151 38.3671 9.48598 37.9189 9.48598 37.4318C9.48598 36.9449 9.71162 36.4966 10.1049 36.202C10.2069 36.1256 10.2898 36.0265 10.3468 35.9125C10.4038 35.7985 10.4335 35.6728 10.4335 35.5454C10.4335 35.4179 10.4038 35.2922 10.3467 35.1782C10.2897 35.0643 10.2069 34.9652 10.1048 34.8888C9.71151 34.5943 9.48598 34.1461 9.48598 33.6591C9.48598 33.1721 9.71162 32.7239 10.1048 32.4295C10.2069 32.3531 10.2897 32.254 10.3468 32.14C10.4038 32.026 10.4335 31.9003 10.4335 31.7728C10.4335 31.6453 10.4038 31.5196 10.3468 31.4056C10.2897 31.2916 10.2069 31.1925 10.1048 31.1161C9.71151 30.8217 9.48598 30.3734 9.48598 29.8864C9.48598 29.3993 9.71162 28.9511 10.1048 28.6567C10.2069 28.5803 10.2897 28.4812 10.3468 28.3672C10.4039 28.2532 10.4336 28.1275 10.4336 28C10.4336 27.8725 10.4039 27.7468 10.3468 27.6328C10.2897 27.5188 10.2069 27.4197 10.1048 27.3433C9.71151 27.0489 9.48598 26.6007 9.48598 26.1136C9.48598 25.6267 9.71162 25.1783 10.1049 24.8838C10.2069 24.8074 10.2898 24.7083 10.3468 24.5943C10.4038 24.4803 10.4335 24.3546 10.4335 24.2271C10.4335 24.0997 10.4038 23.974 10.3467 23.86C10.2897 23.746 10.2069 23.6469 10.1048 23.5705C9.71151 23.2761 9.48598 22.8279 9.48598 22.3409C9.48598 21.8539 9.71162 21.4057 10.1048 21.1112C10.2069 21.0349 10.2897 20.9358 10.3468 20.8218C10.4039 20.7078 10.4336 20.5821 10.4336 20.4546C10.4336 20.3272 10.4039 20.2015 10.3468 20.0875C10.2898 19.9735 10.207 19.8744 10.1049 19.798C9.71151 19.5034 9.48598 19.0551 9.48598 18.5682C9.48598 18.0811 9.71162 17.6329 10.1048 17.3385C10.2069 17.2621 10.2897 17.163 10.3468 17.049C10.4039 16.935 10.4336 16.8092 10.4336 16.6818C10.4336 16.5543 10.4039 16.4286 10.3468 16.3146C10.2897 16.2006 10.2069 16.1015 10.1048 16.0251C9.71151 15.7306 9.48598 15.2824 9.48598 14.7954C9.48598 14.3084 9.71162 13.8601 10.1049 13.5656C10.2069 13.4892 10.2898 13.39 10.3468 13.276C10.4038 13.1621 10.4335 13.0364 10.4335 12.9089C10.4335 12.7814 10.4038 12.6557 10.3467 12.5418C10.2897 12.4278 10.2069 12.3287 10.1048 12.2523C9.71151 11.9579 9.48598 11.5096 9.48598 11.0227C9.48598 10.1749 10.1757 9.48511 11.0235 9.48511C11.5104 9.48511 11.9586 9.71075 12.2532 10.104C12.3295 10.206 12.4287 10.2888 12.5426 10.3458C12.6566 10.4029 12.7823 10.4326 12.9097 10.4326C13.0372 10.4326 13.1629 10.4029 13.2769 10.3458C13.3908 10.2888 13.4899 10.206 13.5663 10.104C13.8609 9.71064 14.3092 9.48511 14.796 9.48511C15.283 9.48511 15.7312 9.71075 16.0257 10.104C16.1021 10.206 16.2012 10.2888 16.3152 10.3458C16.4292 10.4028 16.5549 10.4325 16.6823 10.4325C16.8097 10.4325 16.9354 10.4028 17.0494 10.3458C17.1634 10.2888 17.2625 10.206 17.3389 10.104C17.6334 9.71064 18.0816 9.48511 18.5686 9.48511C19.0555 9.48511 19.5037 9.71075 19.7983 10.104C19.8747 10.206 19.9738 10.2888 20.0878 10.3458C20.2017 10.4028 20.3274 10.4325 20.4549 10.4325C20.5823 10.4325 20.708 10.4028 20.822 10.3458C20.9359 10.2888 21.0351 10.206 21.1114 10.104C21.406 9.71064 21.8542 9.48511 22.3412 9.48511C22.8281 9.48511 23.2763 9.71075 23.5709 10.104C23.6473 10.206 23.7464 10.2888 23.8603 10.3458C23.9743 10.4028 24.1 10.4325 24.2274 10.4325C24.3549 10.4325 24.4806 10.4028 24.5945 10.3458C24.7085 10.2888 24.8076 10.206 24.884 10.104C25.1786 9.71064 25.6268 9.48511 26.1137 9.48511C26.6007 9.48511 27.0489 9.71075 27.3434 10.104C27.4198 10.206 27.5189 10.2888 27.6329 10.3458C27.7469 10.4028 27.8726 10.4325 28 10.4325C28.1274 10.4325 28.2531 10.4028 28.3671 10.3458C28.4811 10.2888 28.5802 10.206 28.6566 10.104C28.9511 9.71064 29.3993 9.48511 29.8863 9.48511C30.3732 9.48511 30.8214 9.71075 31.116 10.104C31.1924 10.206 31.2915 10.2888 31.4055 10.3458C31.5194 10.4028 31.6451 10.4325 31.7726 10.4325C31.9 10.4325 32.0257 10.4028 32.1397 10.3458C32.2536 10.2888 32.3527 10.206 32.4291 10.104C32.7237 9.71064 33.1719 9.48511 33.6588 9.48511C34.1457 9.48511 34.594 9.71075 34.8885 10.104C34.965 10.2059 35.0641 10.2887 35.178 10.3457C35.292 10.4028 35.4177 10.4324 35.5451 10.4324C35.6726 10.4324 35.7982 10.4028 35.9122 10.3457C36.0262 10.2887 36.1253 10.2059 36.2017 10.104C36.4962 9.71064 36.9445 9.48511 37.4314 9.48511C37.9182 9.48511 38.3666 9.71075 38.6611 10.104C38.7375 10.2059 38.8366 10.2887 38.9506 10.3457C39.0646 10.4028 39.1903 10.4324 39.3177 10.4324C39.4451 10.4324 39.5708 10.4028 39.6848 10.3457C39.7987 10.2887 39.8979 10.2059 39.9743 10.104C40.2688 9.71064 40.717 9.48511 41.204 9.48511C41.6908 9.48511 42.1391 9.71075 42.4337 10.104C42.5101 10.2059 42.6092 10.2887 42.7232 10.3457C42.8371 10.4028 42.9628 10.4324 43.0902 10.4324C43.2177 10.4324 43.3434 10.4028 43.4573 10.3457C43.5713 10.2887 43.6704 10.2059 43.7468 10.104C44.0414 9.71064 44.4896 9.48511 44.9765 9.48511C45.8243 9.48511 46.514 10.1749 46.514 11.0227C46.514 11.5096 46.2884 11.9579 45.8951 12.2524C45.7931 12.3288 45.7103 12.4279 45.6532 12.5419C45.5962 12.6559 45.5665 12.7815 45.5665 12.909C45.5665 13.0364 45.5962 13.1621 45.6532 13.2761C45.7103 13.3901 45.7931 13.4892 45.8951 13.5656C46.2885 13.8602 46.514 14.3084 46.514 14.7954C46.514 15.1743 46.376 15.5287 46.13 15.8067C45.8519 15.7289 45.5645 15.6893 45.2758 15.6889C44.5827 15.6889 43.9283 15.9085 43.3895 16.309C42.8508 15.9085 42.1963 15.6889 41.5032 15.6889C40.8101 15.6889 40.1557 15.9085 39.617 16.309C39.0783 15.9085 38.4239 15.6889 37.7308 15.6889C37.0377 15.6889 36.3832 15.9085 35.8445 16.309C35.3057 15.9085 34.6513 15.6889 33.9582 15.6889C33.2651 15.6889 32.6107 15.9085 32.0719 16.309C31.5331 15.9085 30.8787 15.6889 30.1856 15.6889C29.4925 15.6889 28.8381 15.9085 28.2994 16.309C27.7606 15.9085 27.1062 15.6889 26.4131 15.6889C25.72 15.6889 25.0656 15.9085 24.5268 16.309C23.988 15.9085 23.3336 15.6889 22.6405 15.6889C21.9474 15.6889 21.293 15.9085 20.7542 16.309C20.2154 15.9085 19.5611 15.6889 18.8679 15.6889C17.1155 15.6889 15.6897 17.1146 15.6897 18.8671C15.6897 19.5603 15.9094 20.2147 16.3099 20.7535C15.9094 21.2922 15.6897 21.9466 15.6897 22.6399C15.6897 23.3331 15.9094 23.9875 16.3099 24.5263C15.9094 25.065 15.6897 25.7194 15.6897 26.4126C15.6897 27.1057 15.9094 27.7601 16.3099 28.2989C15.9094 28.8377 15.6897 29.4921 15.6897 30.1853C15.6897 30.8785 15.9094 31.5329 16.3099 32.0717C15.9094 32.6105 15.6897 33.2649 15.6897 33.9581C15.6897 34.6513 15.9094 35.3057 16.3099 35.8445C15.9094 36.3833 15.6897 37.0377 15.6897 37.7308C15.6897 38.424 15.9094 39.0785 16.3099 39.6172C15.9094 40.156 15.6897 40.8104 15.6897 41.5035C15.6897 42.1968 15.9094 42.8512 16.3099 43.3899C15.9094 43.9287 15.6897 44.5831 15.6897 45.2763C15.6897 45.5703 15.7315 45.8565 15.8075 46.1307C15.5291 46.3787 15.169 46.5156 14.796 46.515C14.3092 46.5149 13.861 46.2894 13.5663 45.896ZM17.3304 52.8218C17.3304 52.3348 17.556 51.8865 17.9493 51.592C18.0513 51.5156 18.1341 51.4165 18.1911 51.3025C18.2482 51.1885 18.2779 51.0628 18.2779 50.9354C18.2779 50.8079 18.2482 50.6823 18.1911 50.5683C18.1341 50.4543 18.0513 50.3552 17.9493 50.2788C17.5559 49.9843 17.3304 49.536 17.3304 49.0491C17.3304 48.5622 17.556 48.1138 17.9493 47.8193C18.0513 47.7429 18.1341 47.6438 18.1912 47.5298C18.2482 47.4159 18.2779 47.2902 18.2779 47.1627C18.2779 47.0353 18.2482 46.9096 18.1912 46.7956C18.1341 46.6816 18.0513 46.5825 17.9493 46.5061C17.5559 46.2115 17.3304 45.7633 17.3304 45.2763C17.3304 44.7894 17.556 44.3411 17.9493 44.0465C18.0513 43.9701 18.1341 43.871 18.1911 43.757C18.2482 43.6431 18.2779 43.5174 18.2779 43.3899C18.2779 43.2625 18.2482 43.1368 18.1911 43.0228C18.1341 42.9089 18.0513 42.8098 17.9493 42.7334C17.5559 42.4388 17.3304 41.9905 17.3304 41.5035C17.3304 41.0166 17.556 40.5684 17.9493 40.2737C18.0513 40.1973 18.1341 40.0982 18.1911 39.9842C18.2481 39.8703 18.2778 39.7446 18.2778 39.6172C18.2778 39.4897 18.2481 39.364 18.1911 39.2501C18.1341 39.1361 18.0513 39.037 17.9493 38.9606C17.5559 38.666 17.3304 38.2177 17.3304 37.7308C17.3304 37.2438 17.556 36.7956 17.9493 36.5011C18.0513 36.4247 18.1341 36.3256 18.1911 36.2116C18.2482 36.0976 18.2779 35.9719 18.2779 35.8445C18.2779 35.717 18.2482 35.5914 18.1911 35.4774C18.1341 35.3634 18.0513 35.2643 17.9493 35.1879C17.5559 34.8934 17.3304 34.445 17.3304 33.9581C17.3304 33.4712 17.556 33.0228 17.9493 32.7283C18.0513 32.6519 18.1341 32.5528 18.1911 32.4388C18.2482 32.3248 18.2779 32.1991 18.2779 32.0717C18.2779 31.9443 18.2482 31.8186 18.1911 31.7046C18.1341 31.5906 18.0513 31.4915 17.9493 31.4151C17.5559 31.1206 17.3304 30.6723 17.3304 30.1853C17.3304 29.6984 17.556 29.25 17.9493 28.9555C18.0513 28.8791 18.1341 28.78 18.1911 28.666C18.2482 28.5521 18.2779 28.4264 18.2779 28.2989C18.2779 28.1715 18.2482 28.0458 18.1911 27.9318C18.1341 27.8179 18.0513 27.7187 17.9493 27.6423C17.5559 27.3478 17.3304 26.8996 17.3304 26.4126C17.3304 25.9257 17.556 25.4774 17.9493 25.1828C18.0513 25.1064 18.1341 25.0073 18.1911 24.8934C18.2482 24.7794 18.2779 24.6537 18.2779 24.5263C18.2779 24.3988 18.2482 24.2731 18.1911 24.1592C18.1341 24.0452 18.0513 23.9461 17.9493 23.8697C17.5559 23.5751 17.3304 23.1268 17.3304 22.6399C17.3304 22.1529 17.556 21.7046 17.9493 21.41C18.0513 21.3336 18.1341 21.2345 18.1911 21.1206C18.2482 21.0066 18.2779 20.8809 18.2779 20.7535C18.2779 20.626 18.2482 20.5003 18.1911 20.3864C18.1341 20.2724 18.0513 20.1733 17.9493 20.0969C17.5559 19.8023 17.3304 19.354 17.3304 18.8671C17.3304 18.0193 18.0202 17.3295 18.8679 17.3295C19.263 17.3295 19.6311 17.4801 19.9138 17.7462V53.9428C19.6311 54.2089 19.2631 54.3594 18.8679 54.3594C18.0202 54.3594 17.3304 53.6695 17.3304 52.8218ZM25.3337 53.9109V44.9531C25.3337 44.5 24.9665 44.1328 24.5133 44.1328C24.0602 44.1328 23.693 44.5 23.693 44.9531V53.9364C23.4094 54.2065 23.0387 54.3594 22.6405 54.3594C22.2266 54.3594 21.8417 54.1951 21.5543 53.9047V17.7843C21.8416 17.4938 22.2265 17.3295 22.6405 17.3295C23.0387 17.3295 23.4095 17.4824 23.693 17.7525V41.0156C23.693 41.4688 24.0602 41.8359 24.5133 41.8359C24.9665 41.8359 25.3337 41.4688 25.3337 41.0156V17.7779C25.6203 17.4916 26.0024 17.3295 26.4131 17.3295C26.8145 17.3295 27.188 17.4848 27.4725 17.759V53.9301C27.1881 54.2042 26.8145 54.3595 26.4131 54.3595C26.0024 54.3594 25.6203 54.1973 25.3337 53.9109ZM29.1131 53.9174V17.7714C29.399 17.4892 29.7781 17.3294 30.1857 17.3294C30.5903 17.3294 30.9667 17.487 31.2518 17.7652V53.9235C30.9667 54.2017 30.5903 54.3593 30.1857 54.3593C29.7781 54.3594 29.399 54.1996 29.1131 53.9174ZM36.6717 53.9302V27.7812C36.6717 27.3281 36.3045 26.9609 35.8514 26.9609C35.3982 26.9609 35.0311 27.3281 35.0311 27.7812V53.9173C34.745 54.1996 34.3658 54.3594 33.9582 54.3594C33.5537 54.3594 33.1775 54.2019 32.8923 53.9238V17.765C33.1775 17.4869 33.5537 17.3294 33.9582 17.3294C34.3658 17.3294 34.745 17.4893 35.0311 17.7716V23.8438C35.0311 24.2969 35.3982 24.6641 35.8514 24.6641C36.3045 24.6641 36.6717 24.2969 36.6717 23.8438V17.7587C36.9561 17.4846 37.3296 17.3294 37.7309 17.3294C38.1417 17.3294 38.5237 17.4916 38.8105 17.778V53.9107C38.5238 54.1972 38.1417 54.3593 37.7309 54.3593C37.3296 54.3594 36.9561 54.2042 36.6717 53.9302ZM40.4511 53.9366V17.7522C40.7346 17.4823 41.1053 17.3294 41.5033 17.3294C41.9174 17.3294 42.3024 17.4938 42.5899 17.7845V53.9044C42.3024 54.195 41.9174 54.3594 41.5033 54.3594C41.1052 54.3594 40.7346 54.2066 40.4511 53.9366ZM48.0097 53.9493V48.7812C48.0097 48.3281 47.6425 47.9609 47.1894 47.9609C46.7363 47.9609 46.3691 48.3281 46.3691 48.7812V53.898C46.081 54.1928 45.693 54.3594 45.2759 54.3594C44.881 54.3594 44.5131 54.2089 44.2304 53.943V17.7459C44.5131 17.4799 44.8809 17.3295 45.2759 17.3295C45.693 17.3295 46.081 17.4961 46.3691 17.7909V44.8438C46.3691 45.2969 46.7363 45.6641 47.1894 45.6641C47.6425 45.6641 48.0097 45.2969 48.0097 44.8438V17.7395C48.2916 17.4776 48.6568 17.3295 49.0484 17.3295C49.4689 17.3295 49.8598 17.4982 50.1485 17.7974V53.8916C50.0063 54.0399 49.8355 54.1578 49.6464 54.2382C49.4574 54.3186 49.2539 54.3598 49.0484 54.3594C48.6568 54.3594 48.2916 54.2113 48.0097 53.9493ZM53.7397 21.4099C54.1331 21.7045 54.3586 22.1528 54.3586 22.6398C54.3586 23.1267 54.133 23.575 53.7397 23.8696C53.6376 23.946 53.5548 24.0451 53.4978 24.159C53.4408 24.273 53.4111 24.3987 53.4111 24.5261C53.4111 24.6536 53.4408 24.7793 53.4978 24.8932C53.5548 25.0072 53.6376 25.1063 53.7397 25.1827C54.1331 25.4773 54.3586 25.9256 54.3586 26.4125C54.3586 26.8995 54.133 27.3477 53.7397 27.6422C53.6376 27.7186 53.5548 27.8177 53.4978 27.9317C53.4408 28.0457 53.4111 28.1714 53.4111 28.2988C53.4111 28.4263 53.4408 28.5519 53.4978 28.6659C53.5548 28.7799 53.6376 28.879 53.7397 28.9554C54.1331 29.2499 54.3586 29.6983 54.3586 30.1852C54.3586 30.6721 54.133 31.1205 53.7397 31.415C53.6376 31.4914 53.5548 31.5905 53.4978 31.7045C53.4408 31.8185 53.4111 31.9442 53.4111 32.0716C53.4111 32.199 53.4408 32.3247 53.4978 32.4387C53.5548 32.5527 53.6376 32.6518 53.7397 32.7282C54.1331 33.0227 54.3586 33.471 54.3586 33.958C54.3586 34.4449 54.133 34.8932 53.7397 35.1878C53.6376 35.2642 53.5548 35.3633 53.4978 35.4773C53.4408 35.5912 53.4111 35.7169 53.4111 35.8444C53.4111 35.9718 53.4408 36.0975 53.4978 36.2115C53.5548 36.3254 53.6376 36.4246 53.7397 36.501C54.1331 36.7955 54.3586 37.2437 54.3586 37.7307C54.3586 38.2176 54.133 38.6659 53.7397 38.9605C53.6376 39.0369 53.5548 39.136 53.4978 39.2499C53.4408 39.3639 53.4111 39.4896 53.4111 39.6171C53.4111 39.7445 53.4408 39.8702 53.4978 39.9841C53.5548 40.0981 53.6376 40.1972 53.7397 40.2736C54.1331 40.5683 54.3586 41.0165 54.3586 41.5034C54.3586 41.9904 54.133 42.4387 53.7397 42.7332C53.6376 42.8096 53.5548 42.9088 53.4978 43.0227C53.4408 43.1367 53.4111 43.2624 53.4111 43.3898C53.4111 43.5173 53.4408 43.643 53.4978 43.7569C53.5548 43.8709 53.6376 43.97 53.7397 44.0464C54.1331 44.341 54.3586 44.7893 54.3586 45.2762C54.3586 45.7632 54.133 46.2114 53.7397 46.506C53.6376 46.5824 53.5548 46.6815 53.4978 46.7955C53.4407 46.9095 53.411 47.0352 53.411 47.1626C53.411 47.2901 53.4407 47.4158 53.4978 47.5297C53.5548 47.6437 53.6376 47.7428 53.7397 47.8192C54.1331 48.1137 54.3586 48.5621 54.3586 49.049C54.3586 49.5359 54.133 49.9842 53.7397 50.2787C53.6376 50.3551 53.5548 50.4542 53.4978 50.5682C53.4408 50.6821 53.4111 50.8078 53.4111 50.9353C53.4111 51.0627 53.4408 51.1884 53.4978 51.3024C53.5548 51.4164 53.6376 51.5155 53.7397 51.5919C54.1331 51.8864 54.3586 52.3347 54.3586 52.8217C54.3586 53.6694 53.6688 54.3593 52.821 54.3593C52.4324 54.3593 52.0699 54.2136 51.7891 53.9558V17.733C52.0699 17.4751 52.4324 17.3294 52.821 17.3294C53.6688 17.3294 54.3586 18.0192 54.3586 18.867C54.3586 19.3539 54.133 19.8022 53.7397 20.0968C53.6376 20.1732 53.5548 20.2723 53.4978 20.3863C53.4408 20.5002 53.4111 20.6259 53.4111 20.7534C53.4111 20.8808 53.4408 21.0065 53.4978 21.1205C53.5548 21.2344 53.6376 21.3335 53.7397 21.4099Z" fill="#999999"/>
<path d="M43.4219 13.7266C43.8749 13.7266 44.2422 13.3593 44.2422 12.9062C44.2422 12.4532 43.8749 12.0859 43.4219 12.0859C42.9688 12.0859 42.6016 12.4532 42.6016 12.9062C42.6016 13.3593 42.9688 13.7266 43.4219 13.7266Z" fill="#999999"/>
<path d="M39.0469 13.7266C39.4999 13.7266 39.8672 13.3593 39.8672 12.9062C39.8672 12.4532 39.4999 12.0859 39.0469 12.0859C38.5938 12.0859 38.2266 12.4532 38.2266 12.9062C38.2266 13.3593 38.5938 13.7266 39.0469 13.7266Z" fill="#999999"/>
<path d="M34.6719 13.7266C35.1249 13.7266 35.4922 13.3593 35.4922 12.9062C35.4922 12.4532 35.1249 12.0859 34.6719 12.0859C34.2188 12.0859 33.8516 12.4532 33.8516 12.9062C33.8516 13.3593 34.2188 13.7266 34.6719 13.7266Z" fill="#999999"/>
<path d="M30.2969 13.7266C30.7499 13.7266 31.1172 13.3593 31.1172 12.9062C31.1172 12.4532 30.7499 12.0859 30.2969 12.0859C29.8438 12.0859 29.4766 12.4532 29.4766 12.9062C29.4766 13.3593 29.8438 13.7266 30.2969 13.7266Z" fill="#999999"/>
<path d="M25.9219 13.7266C26.3749 13.7266 26.7422 13.3593 26.7422 12.9062C26.7422 12.4532 26.3749 12.0859 25.9219 12.0859C25.4688 12.0859 25.1016 12.4532 25.1016 12.9062C25.1016 13.3593 25.4688 13.7266 25.9219 13.7266Z" fill="#999999"/>
<path d="M21.5469 13.7266C21.9999 13.7266 22.3672 13.3593 22.3672 12.9062C22.3672 12.4532 21.9999 12.0859 21.5469 12.0859C21.0938 12.0859 20.7266 12.4532 20.7266 12.9062C20.7266 13.3593 21.0938 13.7266 21.5469 13.7266Z" fill="#999999"/>
<path d="M17.1719 13.7266C17.6249 13.7266 17.9922 13.3593 17.9922 12.9062C17.9922 12.4532 17.6249 12.0859 17.1719 12.0859C16.7188 12.0859 16.3516 12.4532 16.3516 12.9062C16.3516 13.3593 16.7188 13.7266 17.1719 13.7266Z" fill="#999999"/>
<path d="M12.7969 13.7266C13.2499 13.7266 13.6172 13.3593 13.6172 12.9062C13.6172 12.4532 13.2499 12.0859 12.7969 12.0859C12.3438 12.0859 11.9766 12.4532 11.9766 12.9062C11.9766 13.3593 12.3438 13.7266 12.7969 13.7266Z" fill="#999999"/>
<path d="M12.7969 17.8828C13.2499 17.8828 13.6172 17.5155 13.6172 17.0625C13.6172 16.6095 13.2499 16.2422 12.7969 16.2422C12.3438 16.2422 11.9766 16.6095 11.9766 17.0625C11.9766 17.5155 12.3438 17.8828 12.7969 17.8828Z" fill="#999999"/>
<path d="M12.7969 22.0391C13.2499 22.0391 13.6172 21.6718 13.6172 21.2188C13.6172 20.7657 13.2499 20.3984 12.7969 20.3984C12.3438 20.3984 11.9766 20.7657 11.9766 21.2188C11.9766 21.6718 12.3438 22.0391 12.7969 22.0391Z" fill="#999999"/>
<path d="M12.7969 26.1953C13.2499 26.1953 13.6172 25.828 13.6172 25.375C13.6172 24.922 13.2499 24.5547 12.7969 24.5547C12.3438 24.5547 11.9766 24.922 11.9766 25.375C11.9766 25.828 12.3438 26.1953 12.7969 26.1953Z" fill="#999999"/>
<path d="M12.7969 30.3516C13.2499 30.3516 13.6172 29.9843 13.6172 29.5312C13.6172 29.0782 13.2499 28.7109 12.7969 28.7109C12.3438 28.7109 11.9766 29.0782 11.9766 29.5312C11.9766 29.9843 12.3438 30.3516 12.7969 30.3516Z" fill="#999999"/>
<path d="M12.7969 34.5078C13.2499 34.5078 13.6172 34.1405 13.6172 33.6875C13.6172 33.2345 13.2499 32.8672 12.7969 32.8672C12.3438 32.8672 11.9766 33.2345 11.9766 33.6875C11.9766 34.1405 12.3438 34.5078 12.7969 34.5078Z" fill="#999999"/>
<path d="M12.7969 38.6641C13.2499 38.6641 13.6172 38.2968 13.6172 37.8438C13.6172 37.3907 13.2499 37.0234 12.7969 37.0234C12.3438 37.0234 11.9766 37.3907 11.9766 37.8438C11.9766 38.2968 12.3438 38.6641 12.7969 38.6641Z" fill="#999999"/>
<path d="M12.7969 42.8203C13.2499 42.8203 13.6172 42.453 13.6172 42C13.6172 41.547 13.2499 41.1797 12.7969 41.1797C12.3438 41.1797 11.9766 41.547 11.9766 42C11.9766 42.453 12.3438 42.8203 12.7969 42.8203Z" fill="#999999"/>
</g>
<defs>
<clipPath id="clip0_382_172">
<rect width="56" height="56" fill="white"/>
</clipPath>
</defs>
</svg>
