<svg width="56" height="56" viewBox="0 0 56 56" fill="none" xmlns="http://www.w3.org/2000/svg">
<path d="M55.7355 20.1356L46.7033 11.1034C46.5734 10.9738 46.407 10.8868 46.2264 10.8541L36.291 9.04766C36.1609 9.02399 36.0272 9.02917 35.8993 9.06285C35.7714 9.09653 35.6525 9.15788 35.5509 9.24256C35.4494 9.32724 35.3676 9.4332 35.3115 9.55294C35.2554 9.67268 35.2262 9.80328 35.2261 9.93552C35.2235 10.2225 35.1978 10.5089 35.1493 10.7918L28.9036 9.23101V8.94198C31.3474 8.44318 32.924 6.05766 32.4252 3.61389C31.9264 1.17012 29.5409 -0.406557 27.0971 0.0922454C24.9948 0.521387 23.4847 2.3705 23.4843 4.51621H25.2907C25.2907 3.01969 26.5038 1.80655 28.0004 1.80655C29.4969 1.80655 30.71 3.01969 30.71 4.51621C30.71 6.01273 29.4969 7.22586 28.0004 7.22586C27.7608 7.22586 27.5311 7.32103 27.3617 7.49041C27.1923 7.6598 27.0971 7.88953 27.0971 8.12908V9.23011L20.8514 10.7918C20.8029 10.5089 20.7772 10.2225 20.7746 9.93552C20.7747 9.8032 20.7457 9.67249 20.6896 9.55262C20.6336 9.43276 20.5519 9.32666 20.4504 9.24185C20.3494 9.15591 20.2304 9.09382 20.1022 9.0602C19.974 9.02658 19.8398 9.02229 19.7097 9.04766L9.77431 10.8541C9.59371 10.8868 9.42736 10.9738 9.29741 11.1034L0.265228 20.1356C0.0959007 20.3049 0.000777914 20.5346 0.000777914 20.7741C0.000777914 21.0136 0.0959007 21.2433 0.265228 21.4127L7.49098 28.6385C7.66036 28.8078 7.89005 28.9029 8.12955 28.9029C8.36905 28.9029 8.59875 28.8078 8.76813 28.6385L10.8392 26.5674V32.516H4.51668C2.03 32.5088 0.0083753 34.5189 0.00114955 37.0055C-0.000922913 37.7137 0.164064 38.4123 0.48271 39.0446C0.801355 39.677 1.26467 40.2253 1.83502 40.645C-0.160301 42.1029 -0.595991 44.9023 0.86203 46.8976C1.13423 47.2702 1.46245 47.5984 1.83502 47.8706C-0.167752 49.3444 -0.596555 52.1629 0.877272 54.1657C1.297 54.736 1.84529 55.1992 2.47765 55.5179C3.11 55.8365 3.80858 56.0015 4.51668 55.9996H37.0325C37.2721 55.9995 37.5018 55.9043 37.6711 55.7349L44.8969 48.5092C44.9797 48.4249 45.0449 48.3251 45.089 48.2155C45.133 48.1059 45.1549 47.9887 45.1534 47.8706H45.1615V26.5674L47.2326 28.6385C47.402 28.8078 47.6317 28.9029 47.8712 28.9029C48.1107 28.9029 48.3404 28.8078 48.5097 28.6385L55.7355 21.4127C55.9048 21.2433 55.9999 21.0136 55.9999 20.7741C55.9999 20.5346 55.9048 20.3049 55.7355 20.1356ZM28.0004 10.8658L34.5686 12.5079C33.9002 13.6471 32.9379 14.5858 31.7824 15.2257C30.6269 15.8656 29.3207 16.1831 28.0004 16.1451C26.6801 16.1831 25.3738 15.8656 24.2183 15.2257C23.0628 14.5858 22.1005 13.6471 21.4322 12.5079L28.0004 10.8658ZM1.80702 37.0321C1.80702 35.5356 3.02016 34.3224 4.51668 34.3224H24.3875C25.884 34.3224 27.0971 35.5356 27.0971 37.0321C27.0971 38.5286 25.884 39.7417 24.3875 39.7417H4.51668C3.02016 39.7417 1.80702 38.5285 1.80702 37.0321ZM1.80702 44.2578C1.80702 42.7613 3.02016 41.5482 4.51668 41.5482H24.3875C25.884 41.5482 27.0971 42.7613 27.0971 44.2578C27.0971 45.7543 25.884 46.9675 24.3875 46.9675H4.51668C3.02016 46.9675 1.80702 45.7542 1.80702 44.2578ZM24.3875 54.1932H4.51668C3.02016 54.1932 1.80702 52.9801 1.80702 51.4836C1.80702 49.9871 3.02016 48.7739 4.51668 48.7739H24.3875C25.884 48.7739 27.0971 49.9871 27.0971 51.4836C27.0971 52.9801 25.884 54.1932 24.3875 54.1932ZM37.9358 52.9161V48.7739H42.0779L37.9358 52.9161ZM47.8712 26.7227L42.1872 21.0388L40.9101 22.3159L43.3551 24.7609V46.9675H37.0325C36.793 46.9675 36.5633 47.0626 36.3939 47.232C36.2245 47.4014 36.1293 47.6311 36.1293 47.8707V54.1932H27.9769C29.4802 52.2457 29.1201 49.4483 27.1727 47.9449C27.14 47.9197 27.107 47.8949 27.0737 47.8707C29.069 46.4128 29.5047 43.6134 28.0468 41.6179C27.7746 41.2453 27.4463 40.9171 27.0737 40.645C29.0765 39.1711 29.5053 36.3526 28.0314 34.3499C27.6113 33.7789 27.0622 33.3153 26.429 32.9966C25.7958 32.6779 25.0963 32.5133 24.3875 32.516H12.6456V24.7609L15.0907 22.3159L13.8135 21.0388L8.12955 26.7227L2.18095 20.7741L10.375 12.5801L19.0459 11.004C19.6366 14.9204 23.4265 17.9516 27.9986 17.9516C32.5706 17.9516 36.3606 14.9204 36.9513 11.004L45.6222 12.5801L53.8198 20.7741L47.8712 26.7227Z" fill="#999999"/>
<path d="M3.61328 36.129H25.2905V37.9354H3.61328V36.129ZM3.61328 43.3547H24.3873V45.1612H3.61328V43.3547ZM3.61328 50.5805H24.3873V52.3869H3.61328V50.5805Z" fill="#999999"/>
</svg>
