<svg width="56" height="56" viewBox="0 0 56 56" fill="none" xmlns="http://www.w3.org/2000/svg">
<path d="M13.0666 12.1333H26.1333C26.8759 12.1333 27.5881 11.8383 28.1132 11.3132C28.6383 10.7881 28.9333 10.0759 28.9333 9.33333C28.9333 8.59072 28.6383 7.87853 28.1132 7.35343C27.5881 6.82832 26.8759 6.53333 26.1333 6.53333H13.0666C12.324 6.53333 11.6118 6.82832 11.0867 7.35343C10.5616 7.87853 10.2666 8.59072 10.2666 9.33333C10.2666 10.0759 10.5616 10.7881 11.0867 11.3132C11.6118 11.8383 12.324 12.1333 13.0666 12.1333ZM13.0666 8.39999H26.1333C26.3808 8.39999 26.6182 8.49833 26.7932 8.67336C26.9683 8.84839 27.0666 9.08579 27.0666 9.33333C27.0666 9.58086 26.9683 9.81826 26.7932 9.99329C26.6182 10.1683 26.3808 10.2667 26.1333 10.2667H13.0666C12.8191 10.2667 12.5817 10.1683 12.4066 9.99329C12.2316 9.81826 12.1333 9.58086 12.1333 9.33333C12.1333 9.08579 12.2316 8.84839 12.4066 8.67336C12.5817 8.49833 12.8191 8.39999 13.0666 8.39999Z" fill="#999999"/>
<path d="M55.1964 31.2191C55.2925 30.5267 55.202 29.8212 54.9344 29.1754C54.6668 28.5297 54.2318 27.967 53.6741 27.5455C53.3032 27.2659 53.038 26.8687 52.9219 26.419C52.7446 25.7438 52.3908 25.128 51.8967 24.6349C51.4027 24.1418 50.7862 23.7892 50.1107 23.6133C49.6638 23.4947 49.2695 23.2299 48.9907 22.8611C48.5702 22.3018 48.0074 21.8656 47.3609 21.5978C46.7144 21.3301 46.008 21.2406 45.3152 21.3388C44.8549 21.4009 44.3871 21.3072 43.9861 21.0728C43.3836 20.7208 42.6983 20.5352 42.0005 20.5352C41.3026 20.5352 40.6173 20.7208 40.0148 21.0728C39.7655 21.2161 39.4888 21.3055 39.2028 21.3351V7.84935C39.2034 7.60469 39.1554 7.36234 39.0615 7.13642C38.9676 6.91049 38.8297 6.70549 38.6559 6.53335L32.6667 0.544149C32.4943 0.370796 32.2892 0.233424 32.0633 0.140013C31.8374 0.0466018 31.5951 -0.000985453 31.3507 1.54673e-05H2.8C2.05739 1.54673e-05 1.3452 0.295015 0.820101 0.820117C0.294999 1.34522 0 2.05741 0 2.80002L0 49.4667C0 50.2093 0.294999 50.9215 0.820101 51.4466C1.3452 51.9717 2.05739 52.2667 2.8 52.2667H30.4127C30.497 52.757 30.7533 53.2012 31.1356 53.5195C31.5179 53.8378 32.0012 54.0095 32.4987 54.0036H34.9403L36.3141 55.3793C36.7186 55.7768 37.2628 55.9997 37.8299 56C37.9642 55.9996 38.0982 55.9871 38.2303 55.9627C38.5696 55.8986 38.8885 55.7535 39.1599 55.5399C39.4312 55.3262 39.647 55.0502 39.7889 54.7354L42 49.8605L44.2092 54.7298C44.3506 55.0459 44.5663 55.3231 44.8381 55.5378C45.1098 55.7525 45.4295 55.8983 45.7697 55.9627C46.1137 56.0257 46.4677 56.005 46.802 55.9025C47.1363 55.8 47.441 55.6187 47.6905 55.3737L49.0597 54.0036H51.5013C51.8549 54.0037 52.2029 53.916 52.5142 53.7485C52.8256 53.581 53.0905 53.3389 53.2853 53.0439C53.4801 52.7488 53.5986 52.4101 53.6303 52.058C53.662 51.7058 53.6059 51.3514 53.4669 51.0263L50.9012 45.1463C51.3955 44.8956 51.831 44.543 52.1789 44.1116C52.5269 43.6803 52.7795 43.1801 52.92 42.644C53.0387 42.1972 53.3035 41.8029 53.6723 41.524C54.23 41.1021 54.6651 40.5391 54.9326 39.8931C55.2002 39.247 55.2906 38.5412 55.1945 37.8485C55.1343 37.3881 55.2275 36.9207 55.4596 36.5186C55.8121 35.9162 55.9979 35.2308 55.9979 34.5329C55.9979 33.8349 55.8121 33.1496 55.4596 32.5472C55.2257 32.1464 55.133 31.6788 55.1964 31.2191ZM32.6667 3.18548L36.0164 6.53335H33.6C33.3525 6.53335 33.1151 6.43502 32.94 6.25998C32.765 6.08495 32.6667 5.84755 32.6667 5.60002V3.18548ZM30.8056 50.4H2.8C2.55246 50.4 2.31507 50.3017 2.14003 50.1267C1.965 49.9516 1.86667 49.7142 1.86667 49.4667V2.80002C1.86667 2.55248 1.965 2.31508 2.14003 2.14005C2.31507 1.96502 2.55246 1.86668 2.8 1.86668H30.8V5.60002C30.8 6.34262 31.095 7.05481 31.6201 7.57992C32.1452 8.10502 32.8574 8.40002 33.6 8.40002H37.3333V21.393C36.4084 21.5865 35.5842 22.1071 35.0121 22.8592C34.7325 23.2302 34.3354 23.4954 33.8856 23.6115C33.2104 23.7887 32.5947 24.1425 32.1016 24.6366C31.6085 25.1307 31.2559 25.7472 31.08 26.4227C30.9614 26.8695 30.6965 27.2638 30.3277 27.5427C29.77 27.9646 29.3349 28.5276 29.0674 29.1736C28.7998 29.8197 28.7094 30.5255 28.8055 31.2182C28.8687 31.6785 28.775 32.1467 28.5395 32.5472C28.1869 33.1496 28.0011 33.8349 28.0011 34.5329C28.0011 35.2308 28.1869 35.9162 28.5395 36.5186C28.7726 36.9189 28.865 37.3858 28.8017 37.8448C28.7057 38.5372 28.7961 39.2427 29.0637 39.8885C29.3313 40.5342 29.7664 41.0969 30.324 41.5184C30.695 41.798 30.9602 42.1952 31.0763 42.645C31.2171 43.1808 31.4699 43.6807 31.8181 44.1117C32.1662 44.5427 32.6018 44.895 33.096 45.1454L30.8056 50.4ZM38.0856 53.9691C38.0678 54.0104 38.0399 54.0465 38.0046 54.0742C37.9692 54.1019 37.9274 54.1203 37.8831 54.1278C37.8378 54.1371 37.791 54.1352 37.7466 54.1224C37.7022 54.1095 37.6616 54.0861 37.6283 54.054L36.2208 52.6456C35.8938 52.3201 35.4512 52.1372 34.9897 52.137H32.4987C32.4534 52.1372 32.4088 52.126 32.3691 52.1045C32.3293 52.0829 32.2955 52.0517 32.2709 52.0138C32.2465 51.9792 32.2312 51.9389 32.2264 51.8968C32.2217 51.8547 32.2277 51.8121 32.2439 51.773L34.7816 45.9508C34.8657 46.0296 34.9428 46.1155 35.0121 46.2075C35.4325 46.7669 35.9953 47.2033 36.6418 47.471C37.2883 47.7388 37.9948 47.8281 38.6876 47.7298C39.1479 47.6668 39.616 47.7605 40.0167 47.9958C40.2228 48.1128 40.4389 48.2112 40.6625 48.2897L38.0856 53.9691ZM51.7515 51.7646C51.7693 51.8046 51.7765 51.8486 51.7724 51.8922C51.7683 51.9358 51.7531 51.9777 51.7281 52.0138C51.7036 52.0517 51.6698 52.0829 51.63 52.1045C51.5902 52.126 51.5457 52.1372 51.5004 52.137H49.0093C48.5488 52.1371 48.107 52.3193 47.7801 52.6437L46.3801 54.0438C46.3468 54.0773 46.3056 54.1021 46.2604 54.116C46.2151 54.1298 46.1671 54.1322 46.1207 54.1231C46.0754 54.1153 46.0329 54.0962 45.9972 54.0675C45.9614 54.0387 45.9336 54.0013 45.9163 53.9588L43.3421 48.2842C43.5685 48.2052 43.7871 48.1059 43.9955 47.9874C44.3963 47.7554 44.8628 47.6631 45.3217 47.7251C46.0142 47.822 46.72 47.732 47.3659 47.4643C48.0118 47.1967 48.5744 46.7611 48.9953 46.2028C49.0643 46.1116 49.1408 46.0264 49.224 45.948L51.7515 51.7646ZM53.8533 35.5721V35.5806C53.4107 36.3414 53.235 37.2284 53.354 38.1005C53.4041 38.4638 53.3565 38.8339 53.216 39.1726C53.0756 39.5114 52.8475 39.8066 52.5551 40.0279C51.8501 40.5625 51.3452 41.3185 51.1215 42.1745C51.0285 42.5289 50.8429 42.8521 50.5837 43.1111C50.3246 43.3701 50.0012 43.5555 49.6468 43.6483C48.7903 43.8703 48.0338 44.3752 47.5001 45.0809C47.2772 45.3714 46.9817 45.5981 46.6434 45.7382C46.3051 45.8782 45.9358 45.9268 45.5728 45.8789C44.6963 45.7589 43.8048 45.9361 43.0407 46.382C42.7247 46.5684 42.3645 46.6666 41.9977 46.6666C41.6308 46.6666 41.2707 46.5684 40.9547 46.382C40.3512 46.0303 39.6652 45.8451 38.9667 45.8453C38.7871 45.8457 38.6078 45.8582 38.43 45.8827C38.0668 45.9313 37.6973 45.883 37.3588 45.7427C37.0203 45.6024 36.7249 45.375 36.5027 45.0838C35.968 44.3788 35.212 43.8739 34.356 43.6502C34.0016 43.5571 33.6784 43.3715 33.4194 43.1124C33.1604 42.8533 32.9751 42.5299 32.8823 42.1755C32.6602 41.3189 32.1554 40.5625 31.4496 40.0288C31.1571 39.8076 30.929 39.5124 30.7887 39.1736C30.6485 38.8348 30.6011 38.4647 30.6516 38.1015C30.7717 37.2249 30.5946 36.3334 30.1485 35.5694C29.9622 35.2534 29.8639 34.8932 29.8639 34.5264C29.8639 34.1595 29.9622 33.7993 30.1485 33.4833C30.5911 32.7225 30.7669 31.8355 30.6479 30.9633C30.5978 30.6001 30.6454 30.23 30.7858 29.8913C30.9262 29.5525 31.1544 29.2573 31.4468 29.036C32.1518 28.5014 32.6566 27.7454 32.8804 26.8894C32.9734 26.535 33.159 26.2117 33.4181 25.9528C33.6773 25.6938 34.0006 25.5084 34.3551 25.4156C35.2116 25.1936 35.968 24.6887 36.5017 23.983C36.7246 23.6923 37.02 23.4656 37.3584 23.3255C37.6967 23.1854 38.066 23.1369 38.4291 23.1849C39.3056 23.3044 40.1969 23.1273 40.9612 22.6819C41.2772 22.4955 41.6374 22.3973 42.0042 22.3973C42.3711 22.3973 42.7312 22.4955 43.0472 22.6819C43.8079 23.125 44.695 23.3007 45.5672 23.1812C45.9304 23.1321 46.3001 23.1802 46.6387 23.3205C46.9773 23.4609 47.2726 23.6885 47.4945 23.9802C48.0292 24.6851 48.7852 25.19 49.6412 25.4138C49.9956 25.5068 50.3188 25.6924 50.5778 25.9515C50.8368 26.2106 51.0221 26.534 51.1149 26.8884C51.337 27.745 51.8418 28.5014 52.5476 29.0351C52.8401 29.2563 53.0682 29.5515 53.2085 29.8903C53.3488 30.2291 53.3961 30.5992 53.3456 30.9624C53.2255 31.839 53.4026 32.7305 53.8487 33.4946C54.0341 33.8092 54.1323 34.1675 54.1332 34.5327C54.134 34.8979 54.0374 35.2567 53.8533 35.5721Z" fill="#999999"/>
<path d="M42.0001 25.2C40.1541 25.2 38.3496 25.7474 36.8148 26.7729C35.2799 27.7985 34.0836 29.2561 33.3772 30.9616C32.6708 32.667 32.486 34.5437 32.8461 36.3542C33.2062 38.1646 34.0951 39.8277 35.4004 41.133C36.7057 42.4383 38.3688 43.3272 40.1793 43.6873C41.9897 44.0474 43.8664 43.8626 45.5718 43.1562C47.2773 42.4498 48.7349 41.2535 49.7605 39.7186C50.786 38.1838 51.3334 36.3793 51.3334 34.5333C51.3307 32.0588 50.3465 29.6864 48.5968 27.9366C46.847 26.1869 44.4746 25.2027 42.0001 25.2ZM42.0001 42C40.5233 42 39.0797 41.5621 37.8518 40.7416C36.624 39.9212 35.6669 38.755 35.1018 37.3907C34.5367 36.0263 34.3888 34.525 34.6769 33.0766C34.965 31.6282 35.6761 30.2978 36.7204 29.2536C37.7646 28.2093 39.095 27.4982 40.5434 27.2101C41.9918 26.922 43.4931 27.0699 44.8575 27.635C46.2218 28.2001 47.388 29.1572 48.2084 30.385C49.0289 31.6129 49.4668 33.0565 49.4668 34.5333C49.4645 36.5129 48.6772 38.4108 47.2774 39.8106C45.8776 41.2104 43.9797 41.9977 42.0001 42ZM6.53343 17.7333H32.6668C32.9143 17.7333 33.1517 17.635 33.3267 17.4599C33.5018 17.2849 33.6001 17.0475 33.6001 16.8C33.6001 16.5524 33.5018 16.315 33.3267 16.14C33.1517 15.965 32.9143 15.8666 32.6668 15.8666H6.53343C6.2859 15.8666 6.0485 15.965 5.87346 16.14C5.69843 16.315 5.6001 16.5524 5.6001 16.8C5.6001 17.0475 5.69843 17.2849 5.87346 17.4599C6.0485 17.635 6.2859 17.7333 6.53343 17.7333ZM6.53343 22.4H30.8001C31.0476 22.4 31.285 22.3016 31.4601 22.1266C31.6351 21.9516 31.7334 21.7142 31.7334 21.4666C31.7334 21.2191 31.6351 20.9817 31.4601 20.8067C31.285 20.6316 31.0476 20.5333 30.8001 20.5333H6.53343C6.2859 20.5333 6.0485 20.6316 5.87346 20.8067C5.69843 20.9817 5.6001 21.2191 5.6001 21.4666C5.6001 21.7142 5.69843 21.9516 5.87346 22.1266C6.0485 22.3016 6.2859 22.4 6.53343 22.4ZM27.0668 25.2H20.5334C20.2859 25.2 20.0485 25.2983 19.8735 25.4733C19.6984 25.6484 19.6001 25.8858 19.6001 26.1333C19.6001 26.3808 19.6984 26.6182 19.8735 26.7933C20.0485 26.9683 20.2859 27.0666 20.5334 27.0666H27.0668C27.3143 27.0666 27.5517 26.9683 27.7267 26.7933C27.9018 26.6182 28.0001 26.3808 28.0001 26.1333C28.0001 25.8858 27.9018 25.6484 27.7267 25.4733C27.5517 25.2983 27.3143 25.2 27.0668 25.2ZM6.53343 27.0666H16.8001C17.0476 27.0666 17.285 26.9683 17.4601 26.7933C17.6351 26.6182 17.7334 26.3808 17.7334 26.1333C17.7334 25.8858 17.6351 25.6484 17.4601 25.4733C17.285 25.2983 17.0476 25.2 16.8001 25.2H6.53343C6.2859 25.2 6.0485 25.2983 5.87346 25.4733C5.69843 25.6484 5.6001 25.8858 5.6001 26.1333C5.6001 26.3808 5.69843 26.6182 5.87346 26.7933C6.0485 26.9683 6.2859 27.0666 6.53343 27.0666ZM12.1334 30.8C12.1334 31.0475 12.2318 31.2849 12.4068 31.4599C12.5818 31.635 12.8192 31.7333 13.0668 31.7333H25.2001C25.4476 31.7333 25.685 31.635 25.8601 31.4599C26.0351 31.2849 26.1334 31.0475 26.1334 30.8C26.1334 30.5524 26.0351 30.315 25.8601 30.14C25.685 29.965 25.4476 29.8666 25.2001 29.8666H13.0668C12.8192 29.8666 12.5818 29.965 12.4068 30.14C12.2318 30.315 12.1334 30.5524 12.1334 30.8ZM6.53343 31.7333H9.33343C9.58097 31.7333 9.81836 31.635 9.9934 31.4599C10.1684 31.2849 10.2668 31.0475 10.2668 30.8C10.2668 30.5524 10.1684 30.315 9.9934 30.14C9.81836 29.965 9.58097 29.8666 9.33343 29.8666H6.53343C6.2859 29.8666 6.0485 29.965 5.87346 30.14C5.69843 30.315 5.6001 30.5524 5.6001 30.8C5.6001 31.0475 5.69843 31.2849 5.87346 31.4599C6.0485 31.635 6.2859 31.7333 6.53343 31.7333ZM6.53343 36.4H25.2001C25.4476 36.4 25.685 36.3016 25.8601 36.1266C26.0351 35.9516 26.1334 35.7142 26.1334 35.4666C26.1334 35.2191 26.0351 34.9817 25.8601 34.8067C25.685 34.6316 25.4476 34.5333 25.2001 34.5333H6.53343C6.2859 34.5333 6.0485 34.6316 5.87346 34.8067C5.69843 34.9817 5.6001 35.2191 5.6001 35.4666C5.6001 35.7142 5.69843 35.9516 5.87346 36.1266C6.0485 36.3016 6.2859 36.4 6.53343 36.4ZM26.1334 39.2H6.53343C6.2859 39.2 6.0485 39.2983 5.87346 39.4733C5.69843 39.6484 5.6001 39.8858 5.6001 40.1333C5.6001 40.3808 5.69843 40.6182 5.87346 40.7933C6.0485 40.9683 6.2859 41.0666 6.53343 41.0666H26.1334C26.381 41.0666 26.6184 40.9683 26.7934 40.7933C26.9684 40.6182 27.0668 40.3808 27.0668 40.1333C27.0668 39.8858 26.9684 39.6484 26.7934 39.4733C26.6184 39.2983 26.381 39.2 26.1334 39.2ZM16.8001 43.8666H6.53343C6.2859 43.8666 6.0485 43.965 5.87346 44.14C5.69843 44.315 5.6001 44.5524 5.6001 44.8C5.6001 45.0475 5.69843 45.2849 5.87346 45.4599C6.0485 45.635 6.2859 45.7333 6.53343 45.7333H16.8001C17.0476 45.7333 17.285 45.635 17.4601 45.4599C17.6351 45.2849 17.7334 45.0475 17.7334 44.8C17.7334 44.5524 17.6351 44.315 17.4601 44.14C17.285 43.965 17.0476 43.8666 16.8001 43.8666Z" fill="#999999"/>
<path d="M44.1403 32.0068L40.1335 36.0136L39.8601 35.7401C39.684 35.5701 39.4483 35.4761 39.2035 35.4782C38.9588 35.4803 38.7247 35.5785 38.5517 35.7515C38.3786 35.9246 38.2805 36.1587 38.2784 36.4034C38.2762 36.6481 38.3703 36.8838 38.5403 37.0599L39.4737 37.9932C39.6487 38.1682 39.886 38.2665 40.1335 38.2665C40.381 38.2665 40.6184 38.1682 40.7934 37.9932L45.4601 33.3265C45.6301 33.1505 45.7241 32.9148 45.722 32.67C45.7199 32.4253 45.6217 32.1912 45.4487 32.0182C45.2756 31.8451 45.0415 31.747 44.7968 31.7448C44.5521 31.7427 44.3163 31.8368 44.1403 32.0068Z" fill="#999999"/>
</svg>
