<svg width="56" height="36" viewBox="0 0 56 36" fill="none" xmlns="http://www.w3.org/2000/svg">
<path d="M52.0798 15.3053L50.6296 9.50462C51.0261 9.4204 51.3236 9.06865 51.3236 8.64723V7.71196C51.3236 5.68131 49.6715 4.02931 47.6409 4.02931H41.0355V2.10015C41.0355 1.1009 40.2227 0.288025 39.2234 0.288025H5.55319C4.55394 0.288025 3.74106 1.1009 3.74106 2.10015L3.5085 27.4111C3.5085 27.6436 3.60089 27.8666 3.76533 28.0311C3.92977 28.1955 4.15281 28.2879 4.38536 28.2879C4.61792 28.2879 4.84095 28.1955 5.0054 28.0311C5.16984 27.8666 5.26222 27.6436 5.26222 27.4111L5.49478 2.10015C5.49478 2.06788 5.52092 2.04174 5.55319 2.04174H39.2233C39.2556 2.04174 39.2817 2.06788 39.2817 2.10015V28.0002C39.2817 28.2328 39.3741 28.4558 39.5385 28.6202C39.703 28.7847 39.926 28.8771 40.1586 28.8771C40.3911 28.8771 40.6142 28.7847 40.7786 28.6202C40.943 28.4558 41.0354 28.2328 41.0354 28.0002V17.0062H51.3789L51.3812 17.0064L51.3836 17.0063C52.6564 17.0072 53.7371 17.8426 54.1084 18.9938H51.3819C51.1493 18.9938 50.9263 19.0862 50.7618 19.2506C50.5974 19.415 50.505 19.6381 50.505 19.8706V21.7412C50.505 23.2561 51.7374 24.4886 53.2524 24.4886H54.2462V28.3465H51.9535C51.2003 26.1718 49.133 24.6054 46.7054 24.6054C44.2778 24.6054 42.2104 26.1718 41.4574 28.3465H41.0352V21.7411C41.0352 21.5085 40.9428 21.2855 40.7784 21.121C40.6139 20.9566 40.3909 20.8642 40.1583 20.8642C39.9258 20.8642 39.7028 20.9566 39.5383 21.121C39.3739 21.2855 39.2815 21.5085 39.2815 21.7411V28.3463H21.0894C20.3362 26.1716 18.2689 24.6052 15.8413 24.6052C13.4138 24.6052 11.3463 26.1716 10.5933 28.3463H5.55319C5.5377 28.3463 5.52284 28.3402 5.51189 28.3292C5.50093 28.3183 5.49478 28.3034 5.49478 28.2879V26.3589H9.29436C9.52692 26.3589 9.74995 26.2665 9.91439 26.102C10.0788 25.9376 10.1712 25.7146 10.1712 25.482C10.1712 25.2495 10.0788 25.0264 9.91439 24.862C9.74995 24.6975 9.52692 24.6052 9.29436 24.6052H0.876859C0.644302 24.6052 0.421269 24.6975 0.256826 24.862C0.0923831 25.0264 0 25.2495 0 25.482C0 25.7146 0.0923831 25.9376 0.256826 26.102C0.421269 26.2665 0.644302 26.3589 0.876859 26.3589H3.74117V28.2879C3.74117 29.2872 4.55405 30.1 5.5533 30.1H10.2897C10.2895 30.1195 10.2881 30.1389 10.2881 30.1584C10.2881 33.2205 12.7794 35.7116 15.8413 35.7116C18.9033 35.7116 21.3945 33.2205 21.3945 30.1584C21.3945 30.1388 21.3932 30.1195 21.393 30.1H41.1538C41.1535 30.1195 41.1522 30.1389 41.1522 30.1584C41.1522 33.2205 43.6435 35.7116 46.7054 35.7116C49.7674 35.7116 52.2586 33.2205 52.2586 30.1584C52.2586 30.1388 52.2573 30.1195 52.2571 30.1H55.123C55.3556 30.1 55.5786 30.0077 55.7431 29.8432C55.9075 29.6788 55.9999 29.4557 55.9999 29.2232V19.8704C56 17.5613 54.2963 15.6427 52.0798 15.3053ZM41.0355 5.78292H47.6409C48.7046 5.78292 49.57 6.64829 49.57 7.71196V7.77037H41.0355V5.78292ZM41.0355 15.2526V9.52398H48.8269L50.259 15.2526H41.0355ZM15.8413 33.9582C13.7463 33.9582 12.0417 32.2539 12.0417 30.1587C12.0417 28.0635 13.7463 26.3591 15.8413 26.3591C17.9364 26.3591 19.6409 28.0635 19.6409 30.1587C19.6409 32.2539 17.9364 33.9582 15.8413 33.9582ZM46.7056 33.9582C44.6106 33.9582 42.9061 32.2539 42.9061 30.1587C42.9061 28.0635 44.6106 26.3591 46.7056 26.3591C48.8007 26.3591 50.5052 28.0635 50.5052 30.1587C50.5052 32.2539 48.8007 33.9582 46.7056 33.9582ZM54.2464 22.7348H53.2526C52.7046 22.7348 52.2588 22.289 52.2588 21.7411V20.7473H54.2463L54.2464 22.7348Z" fill="#999999"/>
<path d="M15.8414 28.3466C14.8422 28.3466 14.0293 29.1594 14.0293 30.1587C14.0293 31.1579 14.8422 31.9708 15.8414 31.9708C16.8407 31.9708 17.6535 31.1579 17.6535 30.1587C17.6535 29.1594 16.8407 28.3466 15.8414 28.3466ZM46.7057 28.3466C45.7065 28.3466 44.8936 29.1594 44.8936 30.1587C44.8936 31.1579 45.7065 31.9708 46.7057 31.9708C47.705 31.9708 48.5178 31.1579 48.5178 30.1587C48.5178 29.1594 47.705 28.3466 46.7057 28.3466ZM36.4176 24.6055H23.3236C23.0911 24.6055 22.868 24.6979 22.7036 24.8623C22.5392 25.0268 22.4468 25.2498 22.4468 25.4824C22.4468 25.7149 22.5392 25.938 22.7036 26.1024C22.868 26.2668 23.0911 26.3592 23.3236 26.3592H36.4176C36.6501 26.3592 36.8732 26.2668 37.0376 26.1024C37.2021 25.938 37.2944 25.7149 37.2944 25.4824C37.2944 25.2498 37.2021 25.0268 37.0376 24.8623C36.8732 24.6979 36.6501 24.6055 36.4176 24.6055ZM13.9709 20.8643H2.74746C2.51491 20.8643 2.29187 20.9567 2.12743 21.1212C1.96299 21.2856 1.87061 21.5086 1.87061 21.7412C1.87061 21.9737 1.96299 22.1968 2.12743 22.3612C2.29187 22.5257 2.51491 22.618 2.74746 22.618H13.9709C14.2034 22.618 14.4265 22.5257 14.5909 22.3612C14.7553 22.1968 14.8477 21.9737 14.8477 21.7412C14.8477 21.5086 14.7553 21.2856 14.5909 21.1212C14.4265 20.9567 14.2034 20.8643 13.9709 20.8643ZM30.4907 8.96236C30.3262 8.79795 30.1032 8.70561 29.8706 8.70563C29.6381 8.70565 29.4151 8.79803 29.2507 8.96247L21.4531 16.7599L17.3967 12.7035C17.3153 12.6221 17.2186 12.5575 17.1123 12.5134C17.0059 12.4694 16.8919 12.4467 16.7767 12.4467C16.6616 12.4467 16.5476 12.4694 16.4412 12.5134C16.3348 12.5575 16.2381 12.6221 16.1567 12.7035C16.0753 12.7849 16.0107 12.8816 15.9666 12.988C15.9226 13.0944 15.8999 13.2084 15.8999 13.3235C15.8999 13.4387 15.9226 13.5527 15.9666 13.6591C16.0107 13.7654 16.0753 13.8621 16.1567 13.9435L20.8332 18.62C21.0043 18.7912 21.2288 18.8768 21.4531 18.8768C21.6774 18.8768 21.902 18.7912 22.073 18.62L30.4905 10.2025C30.655 10.038 30.7474 9.81498 30.7474 9.58243C30.7474 9.34987 30.6551 9.12683 30.4907 8.96236Z" fill="#999999"/>
</svg>
