<svg width="157" height="61" viewBox="0 0 157 61" fill="none" xmlns="http://www.w3.org/2000/svg">
<path d="M74 33L76.5 32L84.5001 32.5C87.3334 32.1667 93 31.4 93 31C93 30.6 88.3334 13.1667 86.0001 4.5L77.0001 0.5L72 9.5C69.5 12 71 20.5 71 20.5C77.5 22.5 75.3333 29.6667 74 33Z" fill="white"/>
<path fill-rule="evenodd" clip-rule="evenodd" d="M72.0227 31.2477C73.7134 28.0946 73.5712 21.888 68.0811 23.3727C59.8406 26.9182 53.7816 35.6473 51.557 44.1516L49.6642 50.4841C49.6381 50.5741 49.5858 50.6443 49.5074 50.6949C44.5 54.1112 36 58.9998 30.7081 56.7663C28.5412 55.6369 26.8652 53.2908 27.059 50.7538L27.0589 50.7523C27.3879 49.3668 27.8961 48.0338 28.5837 46.7532C28.8033 46.343 28.8735 45.9748 28.9564 45.5394L28.965 45.4945C29.0659 44.1629 27.4679 43.7864 26.5399 44.1741C25.9563 44.418 25.4871 45.0652 25.0836 45.6219C24.8753 45.9092 24.798 45.9323 24.4568 45.8401L23.5338 44.9117L22.9625 44.337C17.2495 40.2077 7.88678 40.9682 2.83821 45.798C-2.33566 51.0848 -0.312779 60.0424 7.90204 60.6713C13.9158 61.1721 19.2087 58.3637 22.8311 53.7544C22.8579 53.7203 22.8834 53.7011 22.9076 53.6969C22.942 53.6908 22.9733 53.7146 23.0019 53.7684C28.516 63.9216 39.1076 60.4333 46.8745 55.6424C47.7849 55.0823 48.6793 54.5242 49.5578 53.9679C49.5884 53.9482 49.6234 53.9363 49.6598 53.9331C49.6955 53.9299 49.7324 53.9355 49.7662 53.9496C49.8 53.9637 49.83 53.9857 49.8536 54.0138C49.8772 54.0419 49.8944 54.0753 49.9027 54.1112C50.1417 55.1076 50.5204 56.0376 51.038 56.901C54.6557 61.8553 64.3794 60.6356 69.1941 59.2329C72.9344 58.1447 76.505 56.65 79.9067 54.7489C79.9233 54.7395 79.9393 54.7324 79.9546 54.7277C79.9781 54.7202 80.0005 54.7187 80.0215 54.7232C80.0362 54.7263 80.0495 54.7324 80.0623 54.7413C80.084 54.7563 80.1031 54.7795 80.1197 54.8108C80.5723 55.6424 81.1123 56.3634 81.7402 56.9741C93.4558 68.349 110.87 48.9381 121.683 44.4157C124.374 43.4065 127.114 43.1507 129.33 44.5373C134.678 47.4665 125.423 55.3346 122.5 56.4998L121 56.9998C119 57.4998 114.759 57.9068 114.456 54.6955C114.24 52.4283 112.171 52.5041 111.691 54.645C111.624 65.1029 125.472 58.5049 130.069 55.2294C130.136 55.1817 130.239 55.1962 130.288 55.2631C135.971 62.7867 149.352 59.4277 155.918 54.8445C158.066 53.3488 156.728 51.2864 154.416 52.7907C150.035 55.6375 137.823 59.2732 133.069 54.0634C129.646 50.6137 136.029 45.6822 138.911 43.9128C140.925 42.6789 144.503 41.9489 146.083 44.0308C147.6 46.0266 149.557 43.34 148.228 41.7664C144.361 37.1872 137.733 41.3645 133.896 43.792C133.834 43.8126 133.759 43.792 133.669 43.7302C131.027 41.9408 127.965 40.4229 124.711 40.8224C118.796 41.9552 114.005 45.4456 109.248 48.9111C102.513 53.8179 95.5917 58.1464 86.8651 56.5976C85.3102 56.0825 84.1889 55.1198 83.501 53.7094C83.4322 53.5695 83.4978 53.3923 83.6438 53.333L85.242 52.6587C89.7254 50.6052 95.9306 46.7921 90.555 41.7495C87.6027 39.9402 83.6049 41.1567 81.1435 43.2722C78.6284 45.4291 78.53 48.6825 78.8134 51.754C78.83 51.932 78.7375 52.1122 78.5833 52.2007C72.4014 55.7885 65.0701 58.2383 57.9881 57.0162C57.1096 56.8645 56.2267 56.5751 55.3386 56.1481L54.1554 55.1788L53.7857 54.7012C52.383 52.7508 53.3164 52.0635 54.6042 50.7595L55.9137 49.4615C62.079 43.7425 67.2668 38.0355 72.0227 31.2477ZM22.5195 48.4529C22.57 48.3668 22.5625 48.2853 22.4971 48.2085C21.8149 47.4218 21.0112 46.7935 20.086 46.3233C17.187 44.6124 12.5134 43.9634 9.28369 45.3428C5.16833 46.7462 -0.259098 54.0657 5.44001 56.7268C10.4616 58.7103 16.1277 56.9937 19.4861 52.9116C20.647 51.498 21.611 50.0248 22.5195 48.4529ZM53.6537 45.8485L52.897 48.0062C52.6858 48.6106 52.8105 48.6933 53.275 48.2506L58.1959 43.5391C59.3027 42.3618 74 26.9998 68.5 26.9998C61.0347 27.401 55.6206 40.4609 53.6537 45.8485ZM86.0217 43.9998C84.2201 44.5486 83.0394 45.6706 82.481 47.3656C82.2355 48.259 82.2183 49.1431 82.4274 50.0177C82.4834 50.2524 82.7357 50.391 82.9629 50.3099C85.0465 49.5598 87.1413 48.9491 88.8312 47.4303C90.9992 45.5174 88.033 43.544 86.0217 43.9998Z" fill="#1E1928"/>
<path d="M22.9625 44.337C23.6578 44.7734 24.1559 45.2745 24.4568 45.8401L23.5338 44.9117L22.9625 44.337Z" fill="#1E1928"/>
<path d="M61.3633 0H95.309V34.0169H73.6078C75.9334 28.757 75.8378 23.7377 72.9372 21.4248L73.7665 18.971H81.6002L83.8818 25.9766C83.9768 26.255 84.0476 26.5032 84.0947 26.7211C84.126 26.8349 84.1489 26.9471 84.1636 27.0576C84.177 27.1587 84.184 27.2584 84.184 27.3567C84.184 28.5432 83.4553 29.1364 81.9973 29.1364H81.1622V30.6982H91.1691V29.1364H90.6897C90.334 29.1364 90.0254 29.1062 89.7653 29.0456C89.5046 28.9851 89.2732 28.8822 89.0717 28.7369C88.9697 28.657 88.8735 28.5646 88.7836 28.4597C88.6962 28.358 88.6146 28.2446 88.5388 28.1194C88.4278 27.9219 88.3169 27.6842 88.2066 27.4062L88.1645 27.2984L88.1123 27.157L78.7499 2.48904H77.9224L71 20.5C68.3078 19.6631 64.8555 20.6198 61.3633 23.0101V0Z" fill="#EF3E36"/>
<path d="M79.2312 12.6357L78.9424 11.7887L78.6874 11.0336L78.4605 10.3591C78.1526 9.39057 77.8976 8.45834 77.6961 7.56245C77.6132 8.0104 77.5125 8.44625 77.3939 8.86996C77.2875 9.28161 77.1689 9.70532 77.0382 10.1412C76.9082 10.577 76.7603 11.0371 76.5939 11.5213L76.4823 11.8363C76.3446 12.2245 76.1922 12.6462 76.0252 13.1012L74.4601 17.1005H80.9429L79.5092 13.4463L79.2312 12.6357Z" fill="#EF3E36"/>
</svg>
