<svg width="103" height="40" viewBox="0 0 103 40" fill="none" xmlns="http://www.w3.org/2000/svg">
<path d="M48.5476 21.6394L50.1877 20.9836L55.4361 21.3115C57.2949 21.0929 61.0126 20.5902 61.0126 20.3279C61.0126 20.0656 57.951 8.63389 56.4202 2.95083L50.5158 0.327881L47.2355 6.22952C45.5953 7.86886 46.5794 13.4426 46.5794 13.4426C50.8437 14.7541 49.4223 19.4536 48.5476 21.6394Z" fill="white"/>
<path fill-rule="evenodd" clip-rule="evenodd" d="M47.2506 20.4904C48.3597 18.4228 48.2665 14.3529 44.6646 15.3265C39.2585 17.6514 35.2834 23.3754 33.824 28.952L32.5823 33.1045C32.5651 33.1634 32.5308 33.2095 32.4794 33.2427C29.1943 35.4829 23.6178 38.6885 20.1461 37.2239C18.7245 36.4833 17.6249 34.9449 17.7521 33.2813L17.752 33.2803C17.9678 32.3718 18.3013 31.4977 18.7524 30.658C18.8964 30.389 18.9425 30.1475 18.9969 29.862L19.0025 29.8326C19.0687 28.9594 18.0203 28.7125 17.4115 28.9667C17.0286 29.1267 16.7208 29.5511 16.4561 29.9161C16.3195 30.1045 16.2688 30.1197 16.0449 30.0592L15.4394 29.4504L15.0646 29.0736C11.3166 26.3659 5.17413 26.8645 1.86201 30.0316C-1.53231 33.4984 -0.205199 39.3722 5.18414 39.7846C9.12949 40.113 12.6019 38.2714 14.9784 35.2489C14.9959 35.2266 15.0127 35.214 15.0285 35.2112C15.0511 35.2072 15.0716 35.2228 15.0904 35.2581C18.708 41.9159 25.6566 39.6285 30.7521 36.4869C31.3493 36.1197 31.9361 35.7537 32.5124 35.3889C32.5325 35.376 32.5555 35.3682 32.5793 35.3661C32.6028 35.364 32.627 35.3677 32.6492 35.3769C32.6713 35.3861 32.691 35.4006 32.7065 35.419C32.722 35.4374 32.7332 35.4593 32.7387 35.4829C32.8955 36.1363 33.144 36.7461 33.4836 37.3123C35.8569 40.561 42.2362 39.7612 45.3949 38.8414C47.8487 38.1278 50.1912 37.1477 52.4229 35.9011C52.4338 35.8949 52.4442 35.8902 52.4543 35.8871C52.4697 35.8822 52.4844 35.8813 52.4982 35.8842C52.5078 35.8863 52.5166 35.8902 52.5249 35.8961C52.5392 35.9059 52.5517 35.9211 52.5626 35.9416C52.8595 36.4869 53.2138 36.9598 53.6257 37.3602C61.3118 44.8191 72.7363 32.0907 79.8302 29.1252C81.5954 28.4634 83.3935 28.2957 84.8469 29.2049C88.3555 31.1257 82.2841 36.2851 80.3662 37.0492L79.3822 37.3771C78.0701 37.7049 75.2878 37.9718 75.0891 35.866C74.9473 34.3793 73.5898 34.4291 73.2752 35.8329C73.2309 42.6906 82.3162 38.364 85.3321 36.2161C85.376 36.1849 85.4435 36.1944 85.4756 36.2382C89.2039 41.1717 97.9825 38.9691 102.29 35.9637C103.699 34.9829 102.821 33.6306 101.304 34.617C98.4308 36.4837 90.4187 38.8678 87.3003 35.4515C85.0545 33.1894 89.2423 29.9557 91.133 28.7954C92.4541 27.9863 94.8016 27.5076 95.8377 28.8728C96.8331 30.1815 98.1171 28.4198 97.2451 27.3879C94.7081 24.3852 90.3597 27.1244 87.8423 28.7162C87.8018 28.7297 87.7524 28.7162 87.6935 28.6757C85.9602 27.5023 83.9513 26.5069 81.8168 26.7689C77.936 27.5117 74.793 29.8005 71.6726 32.073C67.254 35.2905 62.713 38.1289 56.9879 37.1133C55.9679 36.7756 55.2322 36.1443 54.7809 35.2194C54.7358 35.1277 54.7788 35.0115 54.8746 34.9726L55.9231 34.5304C58.8645 33.1839 62.9354 30.6835 59.4087 27.3768C57.4718 26.1904 54.8491 26.9881 53.2343 28.3753C51.5842 29.7897 51.5197 31.923 51.7056 33.9372C51.7165 34.0539 51.6558 34.1721 51.5546 34.2301C47.499 36.5827 42.6893 38.1892 38.0432 37.3878C37.4668 37.2883 36.8876 37.0986 36.305 36.8185L35.5287 36.1829L35.2862 35.8698C34.3659 34.5908 34.9783 34.1401 35.8232 33.285L36.6822 32.4339C40.727 28.6838 44.1305 24.9414 47.2506 20.4904ZM14.7739 31.7725C14.8071 31.716 14.8021 31.6626 14.7592 31.6123C14.3117 31.0964 13.7844 30.6844 13.1774 30.3761C11.2756 29.2541 8.20946 28.8286 6.09057 29.7331C3.39069 30.6534 -0.169982 35.4531 3.56892 37.198C6.86335 38.4987 10.5806 37.373 12.7839 34.6962C13.5455 33.7693 14.1779 32.8033 14.7739 31.7725ZM35.1996 30.0647L34.7031 31.4796C34.5646 31.876 34.6464 31.9301 34.9511 31.6399L38.1795 28.5504C38.9056 27.7783 48.5478 17.7049 44.9395 17.7049C40.0419 17.968 36.49 26.5318 35.1996 30.0647ZM56.4346 28.8525C55.2527 29.2124 54.4781 29.948 54.1117 31.0595C53.9507 31.6454 53.9394 32.2251 54.0766 32.7986C54.1133 32.9525 54.2789 33.0434 54.4279 32.9902C55.7948 32.4984 57.1692 32.0979 58.2778 31.1019C59.7001 29.8476 57.7541 28.5536 56.4346 28.8525Z" fill="white"/>
<path d="M15.0646 29.0736C15.5207 29.3598 15.8475 29.6883 16.0449 30.0592L15.4394 29.4504L15.0646 29.0736Z" fill="white"/>
<path d="M40.2578 0H62.528V22.3062H48.2908C49.8166 18.8571 49.7538 15.5657 47.8509 14.0491L48.395 12.44H53.5342L55.0311 17.0338C55.0934 17.2164 55.1399 17.3792 55.1708 17.5221C55.1913 17.5967 55.2064 17.6702 55.216 17.7427C55.2248 17.809 55.2294 17.8744 55.2294 17.9389C55.2294 18.7168 54.7513 19.1058 53.7948 19.1058H53.2469V20.1299H59.8119V19.1058H59.4974C59.2641 19.1058 59.0616 19.086 58.891 19.0463C58.7199 19.0066 58.5681 18.9391 58.436 18.8439C58.369 18.7915 58.3059 18.7309 58.2469 18.6621C58.1896 18.5954 58.1361 18.5211 58.0863 18.439C58.0135 18.3095 57.9408 18.1535 57.8684 17.9713L57.8408 17.9006L57.8065 17.8079L51.6643 1.63215H51.1215L46.58 13.4426C44.8138 12.8939 42.5489 13.5211 40.2578 15.0886V0Z" fill="#EF3E36"/>
<path d="M51.9801 8.28574L51.7906 7.73031L51.6233 7.23514L51.4744 6.79284C51.2724 6.15775 51.1051 5.54645 50.973 4.95898C50.9186 5.25272 50.8525 5.53852 50.7747 5.81636C50.7049 6.0863 50.6271 6.36414 50.5414 6.64994C50.456 6.93575 50.359 7.23741 50.2499 7.55495L50.1767 7.7615C50.0863 8.01606 49.9864 8.29257 49.8768 8.59097L48.85 11.2135H53.103L52.1624 8.81723L51.9801 8.28574Z" fill="#EF3E36"/>
</svg>
