<svg width="32" height="32" viewBox="0 0 32 32" fill="none" xmlns="http://www.w3.org/2000/svg">
<path d="M26.8484 23.9425L23.4654 23.9865C23.4654 23.9865 22.7425 24.1331 21.7738 23.4585C20.5015 22.5786 19.316 20.2909 18.3763 20.5842C17.4365 20.8922 17.4654 22.9452 17.4654 22.9452C17.4654 22.9452 17.4654 23.3852 17.263 23.6198C17.0317 23.8838 16.5691 23.9425 16.5691 23.9425H15.0655C15.0655 23.9425 11.7257 24.1478 8.77639 21.0388C5.56679 17.6512 2.73309 10.92 2.73309 10.92C2.73309 10.92 2.57406 10.4801 2.74755 10.2601C2.94995 10.0255 3.48489 10.0108 3.48489 10.0108L7.0993 9.98146C7.0993 9.98146 7.44628 10.0401 7.6776 10.2161C7.89447 10.3774 8.01013 10.656 8.01013 10.656C8.01013 10.656 8.58844 12.1519 9.36915 13.5157C10.8872 16.1701 11.5812 16.742 12.1016 16.4634C12.8534 16.0527 12.6221 12.7091 12.6221 12.7091C12.6221 12.7091 12.6366 11.5066 12.2462 10.964C11.9426 10.5387 11.3788 10.4214 11.1185 10.3921C10.9161 10.3627 11.2486 9.8788 11.6824 9.6735C12.333 9.35087 13.4896 9.32154 14.8486 9.3362C15.904 9.35087 16.2076 9.40953 16.6269 9.51218C17.8702 9.82014 17.451 10.9933 17.451 13.8237C17.451 14.7329 17.2919 16.0087 17.9425 16.434C18.2172 16.61 18.8967 16.4634 20.5883 13.545C21.3979 12.1665 21.9907 10.5241 21.9907 10.5241C21.9907 10.5241 22.1208 10.2308 22.3232 10.1134C22.5256 9.98146 22.8148 10.0255 22.8148 10.0255L26.6316 9.99612C26.6316 9.99612 27.7737 9.84947 27.9617 10.3774C28.1496 10.9347 27.528 12.2105 25.981 14.3223C23.422 17.7832 23.1473 17.4606 25.2581 19.455C27.2822 21.3614 27.7014 22.3 27.7737 22.4026C28.6123 23.8251 26.8484 23.9425 26.8484 23.9425Z" fill="#EEEEEE"/>
</svg>
