<svg width="20" height="20" viewBox="0 0 20 20" fill="none" xmlns="http://www.w3.org/2000/svg">
<g clip-path="url(#clip0_501_18)">
<path d="M8.12499 15C8.0429 15.0001 7.96161 14.984 7.88577 14.9526C7.80994 14.9212 7.74106 14.8751 7.68309 14.817L3.30809 10.4423C3.25005 10.3843 3.20401 10.3154 3.17259 10.2396C3.14118 10.1638 3.12501 10.0825 3.125 10.0004C3.12499 9.91834 3.14115 9.83707 3.17255 9.76124C3.20396 9.68541 3.24999 9.61651 3.30802 9.55847C3.36605 9.50043 3.43494 9.45438 3.51077 9.42297C3.58659 9.39155 3.66786 9.37538 3.74993 9.37537C3.83201 9.37537 3.91328 9.39153 3.98911 9.42293C4.06494 9.45433 4.13384 9.50036 4.19188 9.55839L8.12499 13.4912L16.433 5.18343C16.5503 5.06635 16.7092 5.00062 16.8749 5.00067C17.0406 5.00073 17.1994 5.06656 17.3166 5.18371C17.4338 5.30087 17.4996 5.45974 17.4997 5.62543C17.4997 5.79111 17.434 5.95005 17.317 6.06729L8.56696 14.817C8.50897 14.8751 8.44007 14.9212 8.36423 14.9526C8.28838 14.984 8.20708 15.0001 8.12499 15Z" fill="#1E1928"/>
</g>
<rect x="0.5" y="0.5" width="19" height="19" rx="3.5" stroke="#999999"/>
<defs>
<clipPath id="clip0_501_18">
<rect width="20" height="20" rx="4" fill="white"/>
</clipPath>
</defs>
</svg>
