<svg width="32" height="32" viewBox="0 0 32 32" fill="none" xmlns="http://www.w3.org/2000/svg">
<path fill-rule="evenodd" clip-rule="evenodd" d="M24.3669 6.7884C24.6397 6.67965 24.9375 6.64288 25.2298 6.68185C25.5221 6.72082 25.7984 6.83413 26.0305 7.01018C26.2625 7.18622 26.4419 7.41867 26.5503 7.6837C26.6587 7.94874 26.6922 8.23684 26.6473 8.51849L24.186 23.9703C24.1425 24.2437 24.0267 24.5016 23.8497 24.719C23.6728 24.9365 23.4408 25.1062 23.1761 25.2118C22.9113 25.3173 22.6229 25.3551 22.3386 25.3215C22.0543 25.2879 21.7839 25.184 21.5533 25.02L14.2949 19.8554C14.1641 19.7623 14.0561 19.6426 13.9785 19.5048C13.901 19.367 13.8556 19.2144 13.8458 19.0579C13.8359 18.9013 13.8618 18.7445 13.9216 18.5987C13.9813 18.4528 14.0735 18.3214 14.1917 18.2137L20.9646 12.0365C21.0151 11.9906 21.0458 11.9281 21.0509 11.8613C21.056 11.7945 21.035 11.7283 20.992 11.6757C20.9491 11.6232 20.8873 11.588 20.8189 11.5773C20.7504 11.5665 20.6803 11.5809 20.6223 11.6175L11.6682 17.2568C11.2844 17.4985 10.8531 17.6611 10.4012 17.7344C9.94936 17.8077 9.48668 17.7901 9.04217 17.6828L4.8409 16.6685C4.61427 16.6139 4.41127 16.4916 4.26083 16.319C4.11038 16.1465 4.02015 15.9325 4.003 15.7075C3.98584 15.4825 4.04264 15.2581 4.16529 15.0661C4.28794 14.8742 4.4702 14.7245 4.6861 14.6384L24.3669 6.7884Z" fill="#EEEEEE"/>
</svg>
