<svg width="15" height="10" viewBox="0 0 15 10" fill="none" xmlns="http://www.w3.org/2000/svg">
<path d="M5.12499 10.0001C5.0429 10.0002 4.96161 9.98408 4.88577 9.95267C4.80994 9.92126 4.74106 9.87517 4.68309 9.81705L0.308093 5.44239C0.250052 5.38436 0.20401 5.31547 0.172595 5.23964C0.14118 5.16382 0.125007 5.08255 0.125 5.00048C0.124993 4.9184 0.141152 4.83713 0.172554 4.7613C0.203956 4.68547 0.249986 4.61657 0.308016 4.55853C0.366047 4.50049 0.434941 4.45444 0.510765 4.42303C0.586589 4.39161 0.667859 4.37544 0.749933 4.37543C0.832008 4.37543 0.91328 4.39159 0.989109 4.42299C1.06494 4.45439 1.13384 4.50042 1.19188 4.55845L5.12499 8.49121L13.433 0.18349C13.5503 0.0664141 13.7092 0.000678833 13.8749 0.000732455C14.0406 0.000786076 14.1994 0.0666243 14.3166 0.183776C14.4338 0.300928 14.4996 0.459806 14.4997 0.62549C14.4997 0.791175 14.434 0.950107 14.317 1.06735L5.56696 9.81705C5.50897 9.87516 5.44007 9.92124 5.36423 9.95265C5.28838 9.98405 5.20708 10.0002 5.12499 10.0001Z" fill="#1E1928"/>
</svg>
