<svg width="56" height="52" viewBox="0 0 56 52" fill="none" xmlns="http://www.w3.org/2000/svg">
<path d="M30.6417 47.2453C30.6417 48.2048 30.6624 49.2287 30.6706 50.3351H1.64062V18.7892H4.88173C5.33477 18.7892 5.70205 18.4221 5.70205 17.9689C5.70205 17.5158 5.33477 17.1486 4.88173 17.1486H1.42406C0.638859 17.1486 0 17.7879 0 18.5737V50.5515C0 51.3368 0.638859 51.9757 1.42406 51.9757H30.8874C31.6732 51.9757 32.3125 51.3349 32.3125 50.5424C32.3057 49.3317 32.2812 48.1772 32.2824 47.2044C32.2824 46.1338 30.6433 46.0869 30.6417 47.2453Z" fill="#999999"/>
<path d="M54.4122 25.7539C50.2338 24.6085 48.6096 21.2558 48.4827 18.4984C48.4465 17.7415 47.8215 17.1486 47.0597 17.1486H29.5311L31.2726 14.8633C33.8831 15.2876 36.6054 14.3093 38.321 12.0581C41.9989 7.23388 38.5741 0.219111 32.465 0.219111C27.091 0.219111 23.5247 5.77646 25.7612 10.663L24.6008 12.1858L23.5749 10.7863C24.7348 8.36777 24.5338 5.39791 22.7995 3.12203C20.3362 -0.110326 15.674 -0.756295 12.4192 1.76808L11.441 0.78994C10.4179 -0.233045 8.76627 -0.229326 7.74679 0.790049C6.72829 1.80855 6.72829 3.46591 7.74679 4.48441L9.66829 6.40591C8.85683 11.3992 13.171 15.6622 18.1247 14.8619L19.8677 17.1485H8.16318C7.71015 17.1485 7.34286 17.5157 7.34286 17.9688C7.34286 18.422 7.71015 18.7891 8.16318 18.7891H19.5692C18.0942 20.7248 14.4935 25.2711 13.5933 27.4887C11.1622 33.4788 11.1777 33.2773 11.1777 33.9277C11.1777 36.288 14.2063 37.2604 15.6326 35.3874L28.281 18.7892H46.8561C46.9833 20.6741 47.6404 22.4405 48.7633 23.9097C50.0261 25.5622 51.8295 26.747 53.9789 27.3362C54.203 27.3976 54.3595 27.6009 54.3595 27.8308C54.3595 28.1269 54.1343 29.2965 52.7728 36.7204C45.46 28.9661 32.1557 33.1256 30.8103 43.8279C30.7831 44.0438 30.8428 44.2616 30.9763 44.4334C31.1097 44.6052 31.306 44.717 31.5218 44.7441C31.7377 44.7713 31.9555 44.7116 32.1273 44.5781C32.2992 44.4447 32.4109 44.2484 32.4381 44.0325C33.6209 34.6245 45.4015 31.063 51.7061 37.9829C52.5624 38.9244 54.1225 38.4612 54.3491 37.2201C55.8529 29.0212 56.0002 28.3145 56.0002 27.8309C56.0002 26.8636 55.3469 26.0095 54.4122 25.7539ZM27.9044 4.11527C29.841 1.57514 33.4351 1.1278 35.9345 3.03311V3.03322C40.301 6.36194 37.9027 13.3191 32.4563 13.3191C27.6914 13.3191 25.0546 7.85206 27.9044 4.11527ZM8.90693 3.32449C8.52805 2.9455 8.52805 2.32917 8.90682 1.9503C8.99698 1.85995 9.10408 1.78827 9.22198 1.73936C9.33988 1.69046 9.46627 1.66528 9.59391 1.66528C9.72155 1.66528 9.84794 1.69046 9.96584 1.73936C10.0837 1.78827 10.1908 1.85995 10.281 1.9503L11.2431 2.91236C10.8182 3.42922 10.4662 4.00188 10.1969 4.61435L8.90693 3.32449ZM12.3802 11.0622C9.50521 7.28944 12.2268 1.86192 16.9308 1.86192C22.4188 1.86192 24.7477 8.84125 20.4103 12.1466C17.8974 14.0614 14.2952 13.575 12.3802 11.0622ZM19.8164 14.3749C20.9099 13.9106 21.8748 13.1886 22.6286 12.2704L23.5641 13.5466L21.3749 16.4195L19.8164 14.3749ZM14.3276 34.3933C13.7514 35.1497 12.5044 34.5341 12.8811 33.6063C16.2231 25.3716 14.1185 28.6496 26.6805 12.1636C27.4477 13.1317 28.4452 13.892 29.582 14.3752L14.3276 34.3933Z" fill="#999999"/>
<path d="M31.5235 20.321H29.336C28.8829 20.321 28.5157 20.6883 28.5157 21.1413C28.5157 21.5944 28.8829 21.9617 29.336 21.9617H31.5235C31.7411 21.9617 31.9497 21.8752 32.1036 21.7214C32.2574 21.5676 32.3438 21.3589 32.3438 21.1413C32.3438 20.9238 32.2574 20.7151 32.1036 20.5613C31.9497 20.4075 31.7411 20.321 31.5235 20.321ZM47.2149 25.6145C47.3972 25.4957 47.5248 25.3094 47.5697 25.0965C47.6147 24.8836 47.5732 24.6616 47.4544 24.4794C47.0847 23.911 46.7692 23.3092 46.5122 22.6818C46.1637 21.8305 44.8887 22.1183 44.9335 23.0328C44.9549 23.4683 45.7443 24.8599 46.0799 25.3748C46.1387 25.4651 46.2147 25.5429 46.3035 25.6038C46.3924 25.6647 46.4924 25.7075 46.5978 25.7298C46.7032 25.752 46.8119 25.7533 46.9178 25.7335C47.0237 25.7137 47.1246 25.6733 47.2149 25.6145ZM37.5391 21.9615H39.7266C40.1798 21.9615 40.547 21.5943 40.547 21.1412C40.547 20.6882 40.1798 20.3209 39.7266 20.3209H37.5391C37.086 20.3209 36.7188 20.6882 36.7188 21.1412C36.7188 21.5943 37.086 21.9615 37.5391 21.9615ZM52.7182 31.8691L53.0726 29.7104C53.1078 29.4957 53.0563 29.2759 52.9295 29.0991C52.8026 28.9224 52.6107 28.8033 52.396 28.7681C52.1813 28.7328 51.9614 28.7843 51.7847 28.9112C51.6079 29.0381 51.4889 29.23 51.4536 29.4447L51.0992 31.6033C51.064 31.818 51.1155 32.0379 51.2424 32.2146C51.3692 32.3913 51.5611 32.5104 51.7758 32.5457C51.9905 32.5809 52.2104 32.5294 52.3871 32.4025C52.5639 32.2756 52.683 32.0837 52.7182 31.8691ZM4.8125 26.0443C4.8125 25.5913 4.44533 25.224 3.99219 25.224C3.53905 25.224 3.17188 25.5913 3.17188 26.0443V28.2318C3.17188 28.6848 3.53905 29.0521 3.99219 29.0521C4.44533 29.0521 4.8125 28.6848 4.8125 28.2318V26.0443ZM15.1173 21.9615C15.5704 21.9615 15.9376 21.5943 15.9376 21.1412C15.9376 20.6882 15.5704 20.3209 15.1173 20.3209H12.9298C12.4766 20.3209 12.1095 20.6882 12.1095 21.1412C12.1095 21.5943 12.4766 21.9615 12.9298 21.9615H15.1173ZM6.91425 20.321H4.72675C4.27361 20.321 3.90644 20.6883 3.90644 21.1413C3.90644 21.5944 4.27361 21.9617 4.72675 21.9617H6.91425C7.13181 21.9617 7.34046 21.8752 7.4943 21.7214C7.64814 21.5676 7.73456 21.3589 7.73456 21.1413C7.73456 20.9238 7.64814 20.7151 7.4943 20.5613C7.34046 20.4075 7.13181 20.321 6.91425 20.321ZM44.6039 30.3933C44.5763 30.6091 44.6356 30.827 44.7687 30.999C44.9017 31.1711 45.0977 31.2833 45.3135 31.3109C45.9979 31.3985 46.6752 31.5352 47.34 31.7199C47.4438 31.7487 47.5522 31.7569 47.6592 31.7438C47.7661 31.7308 47.8694 31.6968 47.9632 31.6438C48.057 31.5909 48.1395 31.5199 48.2058 31.4351C48.2722 31.3502 48.3212 31.2532 48.3501 31.1494C48.379 31.0456 48.3872 30.9371 48.3741 30.8302C48.3611 30.7232 48.3271 30.6199 48.2741 30.5261C48.2212 30.4323 48.1502 30.3499 48.0654 30.2835C47.9805 30.2171 47.8834 30.1681 47.7796 30.1393C47.0388 29.9335 46.2842 29.7812 45.5215 29.6835C45.3057 29.656 45.0878 29.7152 44.9157 29.8483C44.7436 29.9814 44.6315 30.1775 44.6039 30.3933ZM25.5708 48.8038C26.0239 48.8038 26.3911 48.4365 26.3911 47.9835C26.3911 47.5305 26.0239 47.1632 25.5708 47.1632H23.3833C22.9301 47.1632 22.563 47.5305 22.563 47.9835C22.563 48.4365 22.9301 48.8038 23.3833 48.8038H25.5708ZM6.15683 47.9835C6.15683 48.2011 6.24325 48.4097 6.39709 48.5635C6.55093 48.7174 6.75958 48.8038 6.97714 48.8038H9.16464C9.61778 48.8038 9.98495 48.4365 9.98495 47.9835C9.98495 47.5305 9.61778 47.1632 9.16464 47.1632H6.97714C6.75958 47.1632 6.55093 47.2496 6.39709 47.4034C6.24325 47.5573 6.15683 47.7659 6.15683 47.9835ZM27.8913 42.0462C27.743 42.7582 27.6379 43.4985 27.57 44.3093C27.5519 44.5261 27.6207 44.7412 27.7612 44.9073C27.9017 45.0734 28.1024 45.1769 28.3192 45.195C28.536 45.2132 28.7511 45.1444 28.9173 45.0039C29.0834 44.8634 29.1869 44.6627 29.205 44.4459C29.2671 43.7022 29.3627 43.0267 29.4975 42.3808C29.5381 42.1692 29.494 41.9502 29.3745 41.7709C29.2551 41.5917 29.07 41.4666 28.8591 41.4227C28.6482 41.3787 28.4285 41.4195 28.2475 41.5362C28.0664 41.6528 27.9384 41.836 27.8913 42.0462ZM17.3677 48.8038C17.8208 48.8038 18.188 48.4365 18.188 47.9835C18.188 47.5305 17.8208 47.1632 17.3677 47.1632H15.1802C14.727 47.1632 14.3598 47.5305 14.3598 47.9835C14.3598 48.4365 14.727 48.8038 15.1802 48.8038H17.3677ZM3.99219 41.6302C3.77463 41.6302 3.56598 41.7167 3.41214 41.8705C3.2583 42.0243 3.17188 42.233 3.17188 42.4505V44.638C3.17188 45.0911 3.53905 45.4584 3.99219 45.4584C4.44533 45.4584 4.8125 45.0911 4.8125 44.638V42.4505C4.8125 42.233 4.72607 42.0243 4.57224 41.8705C4.4184 41.7167 4.20975 41.6302 3.99219 41.6302ZM30.9076 35.6615C30.4064 36.3001 30.2901 36.4497 30.2901 36.7562C30.2901 37.548 31.3118 37.8832 31.7769 37.2352C32.2107 36.6308 32.6465 36.1092 33.0959 35.6375C33.2459 35.4799 33.3272 35.2692 33.3219 35.0517C33.3166 34.8342 33.2251 34.6277 33.0676 34.4777C32.91 34.3276 32.6993 34.2463 32.4818 34.2516C32.2643 34.2569 32.0578 34.3484 31.9077 34.506C31.5563 34.8752 31.2226 35.2608 30.9076 35.6615ZM36.6434 31.9712C36.6865 32.0699 36.7487 32.1591 36.8263 32.2338C36.904 32.3085 36.9956 32.3671 37.0959 32.4064C37.1962 32.4456 37.3032 32.4648 37.4109 32.4626C37.5186 32.4605 37.6249 32.4372 37.7235 32.3941C38.3557 32.1178 39.0069 31.8875 39.6722 31.705C39.8805 31.6462 40.0571 31.5074 40.1635 31.3189C40.2699 31.1304 40.2975 30.9075 40.2403 30.6987C40.1831 30.49 40.0457 30.3123 39.858 30.2044C39.6704 30.0965 39.4477 30.0672 39.2385 30.1228C38.4969 30.3262 37.7709 30.583 37.0662 30.891C36.9675 30.9342 36.8783 30.9963 36.8036 31.074C36.7289 31.1516 36.6703 31.2432 36.631 31.3435C36.5917 31.4438 36.5726 31.5509 36.5747 31.6586C36.5769 31.7663 36.6002 31.8725 36.6434 31.9712ZM4.8125 34.2474C4.8125 33.7944 4.44533 33.4271 3.99219 33.4271C3.53905 33.4271 3.17188 33.7944 3.17188 34.2474V36.4349C3.17188 36.8879 3.53905 37.2552 3.99219 37.2552C4.44533 37.2552 4.8125 36.8879 4.8125 36.4349V34.2474ZM17.5393 3.13122C13.5972 2.59976 10.9286 7.12669 13.3592 10.3161C14.8683 12.2965 17.6903 12.6717 19.664 11.1674C22.82 8.76272 21.5281 3.67 17.5393 3.13122ZM19.7695 7.97183C19.4276 10.504 16.1933 11.3284 14.664 9.32162C13.7088 8.06819 13.9515 6.27126 15.205 5.31609C17.2161 3.78375 20.111 5.4433 19.7695 7.97183Z" fill="#999999"/>
<path d="M24.9512 18.4239C25.4987 18.4239 25.9425 17.9801 25.9425 17.4327C25.9425 16.8852 25.4987 16.4414 24.9512 16.4414C24.4038 16.4414 23.96 16.8852 23.96 17.4327C23.96 17.9801 24.4038 18.4239 24.9512 18.4239Z" fill="#999999"/>
</svg>
